<?xml version="1.0" encoding="utf-8"?>
<!-- Generator: Adobe Illustrator 24.3.0, SVG Export Plug-In . SVG Version: 6.00 Build 0)  -->
<svg version="1.1" id="Layer_1" xmlns="http://www.w3.org/2000/svg" xmlns:xlink="http://www.w3.org/1999/xlink" x="0px" y="0px"
	 viewBox="0 0 108 32" style="enable-background:new 0 0 108 32;" xml:space="preserve">
<style type="text/css">
	.st0{fill:#FFFFFF;}
</style>
<g>
	<g>
		<path d="M100.62,32H7.38C3.31,32,0,28.69,0,24.62V7.38C0,3.31,3.31,0,7.38,0h93.24c4.08,0,7.38,3.31,7.38,7.38v17.24
			C108,28.69,104.69,32,100.62,32z"/>
	</g>
	<g>
		<path class="st0" d="M35.82,8.92l-0.45,1.53h-0.99l1.69-5.39h1.23L39,10.45h-1.03l-0.48-1.53H35.82z M37.33,8.18l-0.41-1.33
			c-0.1-0.33-0.19-0.7-0.27-1.01h-0.02c-0.08,0.31-0.16,0.69-0.25,1.01l-0.41,1.33H37.33z"/>
		<path class="st0" d="M40.43,6.55l0.62,1.98c0.11,0.34,0.19,0.66,0.26,0.98h0.02c0.07-0.32,0.16-0.62,0.26-0.98l0.61-1.98h1.01
			l-1.45,3.9h-0.94l-1.41-3.9H40.43z"/>
		<path class="st0" d="M47.03,9.51c0,0.35,0.02,0.7,0.06,0.94h-0.87l-0.07-0.43h-0.02c-0.23,0.3-0.62,0.52-1.12,0.52
			c-0.76,0-1.19-0.57-1.19-1.16c0-0.98,0.85-1.48,2.26-1.47V7.84c0-0.26-0.1-0.68-0.77-0.68c-0.37,0-0.76,0.12-1.02,0.29l-0.19-0.64
			c0.28-0.18,0.77-0.34,1.37-0.34c1.22,0,1.57,0.79,1.57,1.65V9.51z M46.1,8.55c-0.68-0.01-1.33,0.14-1.33,0.73
			c0,0.38,0.24,0.56,0.55,0.56c0.39,0,0.66-0.26,0.76-0.54c0.02-0.07,0.02-0.14,0.02-0.22V8.55z"/>
		<path class="st0" d="M48.87,5.99c-0.32,0-0.53-0.24-0.53-0.53c0-0.3,0.22-0.54,0.54-0.54c0.33,0,0.53,0.23,0.54,0.54
			C49.41,5.75,49.2,5.99,48.87,5.99L48.87,5.99z M48.39,10.45v-3.9h0.96v3.9H48.39z"/>
		<path class="st0" d="M50.73,4.76h0.96v5.69h-0.96V4.76z"/>
		<path class="st0" d="M56.03,9.51c0,0.35,0.02,0.7,0.06,0.94h-0.87l-0.07-0.43h-0.02c-0.23,0.3-0.62,0.52-1.12,0.52
			c-0.76,0-1.19-0.57-1.19-1.16c0-0.98,0.85-1.48,2.26-1.47V7.84c0-0.26-0.1-0.68-0.77-0.68c-0.37,0-0.76,0.12-1.02,0.29l-0.19-0.64
			c0.28-0.18,0.77-0.34,1.37-0.34c1.22,0,1.57,0.79,1.57,1.65V9.51z M55.09,8.55c-0.68-0.01-1.33,0.14-1.33,0.73
			c0,0.38,0.24,0.56,0.55,0.56c0.39,0,0.66-0.26,0.76-0.54c0.02-0.07,0.02-0.14,0.02-0.22V8.55z"/>
		<path class="st0" d="M57.39,4.76h0.96v2.33h0.02c0.23-0.38,0.65-0.62,1.22-0.62c0.93,0,1.59,0.79,1.58,1.98
			c0,1.4-0.87,2.1-1.72,2.1c-0.49,0-0.93-0.19-1.2-0.67h-0.02l-0.05,0.58h-0.82c0.02-0.26,0.03-0.7,0.03-1.09V4.76z M58.35,8.84
			c0,0.08,0.01,0.16,0.02,0.23c0.1,0.4,0.44,0.69,0.85,0.69c0.6,0,0.97-0.49,0.97-1.28c0-0.69-0.32-1.25-0.96-1.25
			c-0.39,0-0.75,0.29-0.85,0.72c-0.02,0.07-0.03,0.16-0.03,0.26V8.84z"/>
		<path class="st0" d="M62.3,4.76h0.96v5.69H62.3V4.76z"/>
		<path class="st0" d="M65.32,8.78c0.02,0.7,0.56,1.01,1.17,1.01c0.44,0,0.76-0.07,1.05-0.18l0.14,0.67
			c-0.33,0.14-0.78,0.25-1.33,0.25c-1.23,0-1.96-0.78-1.96-1.97c0-1.08,0.64-2.1,1.86-2.1c1.23,0,1.64,1.04,1.64,1.9
			c0,0.18-0.02,0.33-0.03,0.42H65.32z M66.99,8.09C67,7.73,66.85,7.14,66.2,7.14c-0.59,0-0.84,0.55-0.88,0.95H66.99z"/>
		<path class="st0" d="M72.63,10.54c-1.07,0-1.9-0.75-1.9-2.01c0-1.28,0.82-2.06,1.97-2.06c1.13,0,1.89,0.82,1.89,2
			C74.59,9.9,73.6,10.54,72.63,10.54L72.63,10.54z M72.67,9.83c0.55,0,0.93-0.54,0.93-1.34c0-0.61-0.27-1.31-0.92-1.31
			c-0.68,0-0.95,0.68-0.95,1.33C71.72,9.26,72.09,9.83,72.67,9.83L72.67,9.83z"/>
		<path class="st0" d="M75.72,7.71c0-0.45-0.02-0.82-0.03-1.16h0.83l0.05,0.58h0.02c0.17-0.3,0.59-0.67,1.22-0.67
			c0.66,0,1.35,0.44,1.35,1.67v2.31H78.2v-2.2c0-0.56-0.2-0.98-0.73-0.98c-0.38,0-0.65,0.28-0.75,0.58
			c-0.03,0.08-0.05,0.2-0.05,0.31v2.3h-0.96V7.71z"/>
		<path class="st0" d="M83.58,5.55v1h0.91v0.74h-0.91V9c0,0.48,0.12,0.72,0.49,0.72c0.17,0,0.27-0.01,0.37-0.04l0.02,0.74
			c-0.14,0.06-0.4,0.1-0.69,0.1c-0.36,0-0.65-0.12-0.83-0.32c-0.21-0.22-0.3-0.58-0.3-1.1V7.29H82.1V6.55h0.54V5.83L83.58,5.55z"/>
		<path class="st0" d="M85.56,4.76h0.96v2.32h0.02c0.12-0.18,0.28-0.34,0.48-0.44c0.2-0.11,0.42-0.18,0.66-0.18
			c0.65,0,1.33,0.44,1.33,1.69v2.3h-0.96V8.26c0-0.56-0.2-0.99-0.73-0.99c-0.37,0-0.64,0.26-0.75,0.55
			c-0.03,0.09-0.04,0.19-0.04,0.3v2.34h-0.96V4.76z"/>
		<path class="st0" d="M91.05,8.78c0.02,0.7,0.56,1.01,1.17,1.01c0.44,0,0.76-0.07,1.05-0.18l0.14,0.67
			c-0.33,0.14-0.78,0.25-1.33,0.25c-1.23,0-1.96-0.78-1.96-1.97c0-1.08,0.64-2.1,1.86-2.1c1.23,0,1.64,1.04,1.64,1.9
			c0,0.18-0.02,0.33-0.03,0.42H91.05z M92.72,8.09c0.01-0.36-0.15-0.95-0.79-0.95c-0.59,0-0.84,0.55-0.88,0.95H92.72z"/>
	</g>
	<g>
		<g>
			<path class="st0" d="M23.88,15.68c-0.02-2.67,2.13-3.97,2.23-4.03C24.89,9.83,23,9.58,22.33,9.56c-1.59-0.17-3.13,0.98-3.94,0.98
				c-0.83,0-2.07-0.96-3.42-0.93c-1.73,0.03-3.35,1.05-4.23,2.65c-1.83,3.25-0.47,8.02,1.29,10.65c0.88,1.29,1.9,2.72,3.24,2.67
				c1.31-0.06,1.8-0.86,3.39-0.86c1.57,0,2.03,0.86,3.4,0.82c1.41-0.02,2.29-1.29,3.14-2.59c1.02-1.47,1.42-2.93,1.44-3
				C26.61,19.94,23.91,18.88,23.88,15.68"/>
			<path class="st0" d="M21.29,7.83c0.71-0.9,1.19-2.14,1.05-3.39c-1.02,0.05-2.3,0.72-3.03,1.61c-0.65,0.78-1.23,2.06-1.08,3.26
				C19.38,9.4,20.56,8.72,21.29,7.83"/>
		</g>
		<g>
			<path class="st0" d="M42.85,25.36h-1.83l-1-3.23h-3.48l-0.96,3.23H33.8l3.45-10.99h2.13L42.85,25.36z M39.72,20.78l-0.91-2.87
				c-0.1-0.29-0.28-0.98-0.54-2.07h-0.03c-0.11,0.47-0.28,1.16-0.51,2.07l-0.89,2.87H39.72z"/>
			<path class="st0" d="M51.73,21.3c0,1.35-0.35,2.41-1.07,3.2c-0.64,0.7-1.43,1.04-2.37,1.04c-1.02,0-1.75-0.38-2.2-1.12h-0.03
				v4.17h-1.72v-8.54c0-0.85-0.02-1.72-0.06-2.61h1.51l0.1,1.26h0.03c0.57-0.95,1.44-1.42,2.61-1.42c0.91,0,1.67,0.37,2.28,1.11
				C51.42,19.12,51.73,20.09,51.73,21.3 M49.98,21.36c0-0.77-0.17-1.41-0.51-1.91c-0.37-0.52-0.87-0.78-1.49-0.78
				c-0.42,0-0.81,0.15-1.15,0.43c-0.34,0.29-0.57,0.67-0.68,1.13c-0.05,0.22-0.08,0.4-0.08,0.54v1.32c0,0.58,0.17,1.06,0.51,1.46
				c0.35,0.4,0.79,0.59,1.34,0.59c0.65,0,1.15-0.25,1.51-0.77C49.8,22.87,49.98,22.2,49.98,21.36"/>
			<path class="st0" d="M60.61,21.3c0,1.35-0.35,2.41-1.07,3.2c-0.64,0.7-1.42,1.04-2.37,1.04c-1.02,0-1.75-0.38-2.19-1.12h-0.03
				v4.17h-1.72v-8.54c0-0.85-0.02-1.72-0.06-2.61h1.51l0.1,1.26h0.03c0.57-0.95,1.44-1.42,2.61-1.42c0.91,0,1.67,0.37,2.28,1.11
				C60.31,19.12,60.61,20.09,60.61,21.3 M58.87,21.36c0-0.77-0.17-1.41-0.51-1.91c-0.37-0.52-0.87-0.78-1.49-0.78
				c-0.42,0-0.81,0.15-1.15,0.43c-0.34,0.29-0.57,0.67-0.67,1.13c-0.05,0.22-0.08,0.4-0.08,0.54v1.32c0,0.58,0.17,1.06,0.52,1.46
				c0.34,0.4,0.79,0.59,1.35,0.59c0.65,0,1.15-0.25,1.51-0.77C58.68,22.87,58.87,22.2,58.87,21.36"/>
			<path class="st0" d="M70.55,22.28c0,0.93-0.32,1.69-0.95,2.28c-0.7,0.64-1.67,0.96-2.92,0.96c-1.15,0-2.08-0.23-2.78-0.68
				l0.4-1.47c0.75,0.47,1.58,0.7,2.48,0.7c0.65,0,1.15-0.15,1.51-0.45c0.36-0.3,0.54-0.7,0.54-1.2c0-0.45-0.15-0.82-0.44-1.13
				c-0.3-0.31-0.79-0.59-1.48-0.85c-1.88-0.72-2.81-1.77-2.81-3.15c0-0.9,0.33-1.64,0.99-2.22c0.66-0.58,1.53-0.87,2.62-0.87
				c0.98,0,1.79,0.18,2.43,0.52l-0.43,1.43c-0.6-0.34-1.29-0.51-2.05-0.51c-0.6,0-1.08,0.15-1.41,0.46
				c-0.28,0.27-0.43,0.6-0.43,0.99c0,0.43,0.16,0.79,0.49,1.07c0.29,0.26,0.8,0.54,1.56,0.85c0.92,0.38,1.6,0.83,2.04,1.34
				C70.34,20.88,70.55,21.52,70.55,22.28"/>
			<path class="st0" d="M76.23,18.75h-1.89v3.85c0,0.98,0.33,1.47,1,1.47c0.31,0,0.56-0.03,0.76-0.08l0.05,1.34
				c-0.34,0.13-0.78,0.2-1.33,0.2c-0.68,0-1.21-0.21-1.59-0.63c-0.38-0.42-0.57-1.14-0.57-2.14v-3.99h-1.13v-1.32h1.13v-1.45
				l1.69-0.52v1.97h1.89V18.75z"/>
			<path class="st0" d="M84.77,21.33c0,1.22-0.34,2.22-1.02,3c-0.71,0.8-1.66,1.21-2.83,1.21c-1.14,0-2.04-0.39-2.71-1.16
				c-0.67-0.77-1.01-1.74-1.01-2.92c0-1.23,0.35-2.23,1.04-3.02c0.69-0.78,1.63-1.17,2.81-1.17c1.13,0,2.05,0.39,2.74,1.16
				C84.44,19.18,84.77,20.15,84.77,21.33 M82.99,21.39c0-0.73-0.15-1.36-0.46-1.88c-0.36-0.63-0.87-0.95-1.54-0.95
				c-0.69,0-1.22,0.32-1.57,0.95c-0.31,0.52-0.46,1.16-0.46,1.91c0,0.73,0.15,1.36,0.46,1.88c0.37,0.63,0.89,0.95,1.56,0.95
				c0.66,0,1.17-0.32,1.54-0.96C82.83,22.75,82.99,22.12,82.99,21.39"/>
			<path class="st0" d="M90.35,18.98c-0.17-0.03-0.35-0.05-0.54-0.05c-0.6,0-1.07,0.24-1.4,0.7c-0.29,0.41-0.43,0.93-0.43,1.56v4.16
				h-1.72l0.01-5.43c0-0.91-0.02-1.74-0.06-2.49h1.5l0.06,1.52h0.05c0.18-0.52,0.47-0.94,0.86-1.26c0.38-0.28,0.8-0.42,1.24-0.42
				c0.16,0,0.3,0.01,0.43,0.03V18.98z"/>
			<path class="st0" d="M98.03,21.02c0,0.32-0.02,0.58-0.06,0.8h-5.15c0.02,0.78,0.27,1.38,0.75,1.79c0.43,0.37,1,0.55,1.69,0.55
				c0.76,0,1.46-0.12,2.08-0.37l0.27,1.22c-0.73,0.33-1.59,0.49-2.59,0.49c-1.2,0-2.14-0.36-2.82-1.09
				c-0.68-0.72-1.03-1.69-1.03-2.91c0-1.19,0.32-2.19,0.96-2.98c0.67-0.85,1.57-1.27,2.7-1.27c1.11,0,1.96,0.42,2.53,1.27
				C97.81,19.2,98.03,20.03,98.03,21.02 M96.4,20.56c0.01-0.52-0.1-0.97-0.33-1.35c-0.3-0.49-0.76-0.73-1.37-0.73
				c-0.56,0-1.02,0.24-1.37,0.72c-0.29,0.38-0.46,0.84-0.51,1.37H96.4z"/>
		</g>
	</g>
</g>
</svg>
