<?xml version="1.0" encoding="utf-8"?>
<!-- Generator: Adobe Illustrator 24.3.0, SVG Export Plug-In . SVG Version: 6.00 Build 0)  -->
<svg version="1.1" id="Layer_1" xmlns="http://www.w3.org/2000/svg" xmlns:xlink="http://www.w3.org/1999/xlink" x="0px" y="0px"
	 viewBox="0 0 170 51" style="enable-background:new 0 0 170 51;" xml:space="preserve">
<style type="text/css">
	.st0{fill:#FFFFFF;}
</style>
<g>
	<g>
		<path d="M162.62,51H7.38C3.31,51,0,47.69,0,43.62V7.38C0,3.31,3.31,0,7.38,0h155.24c4.08,0,7.38,3.31,7.38,7.38v36.24
			C170,47.69,166.69,51,162.62,51z"/>
	</g>
	<g>
		<path class="st0" d="M56.38,14.22l-0.71,2.44h-1.56l2.65-8.59h1.93l2.69,8.59h-1.62l-0.75-2.44H56.38z M58.76,13.03l-0.65-2.12
			c-0.16-0.52-0.29-1.11-0.42-1.61h-0.02c-0.12,0.5-0.25,1.1-0.39,1.61l-0.64,2.12H58.76z"/>
		<path class="st0" d="M63.64,10.44l0.97,3.15c0.17,0.55,0.29,1.05,0.41,1.56h0.04c0.11-0.51,0.25-0.99,0.41-1.56l0.96-3.15H68
			l-2.29,6.21h-1.49l-2.22-6.21H63.64z"/>
		<path class="st0" d="M74.03,15.16c0,0.56,0.02,1.11,0.1,1.49h-1.36l-0.11-0.69h-0.04c-0.36,0.48-0.98,0.83-1.77,0.83
			c-1.2,0-1.88-0.91-1.88-1.85c0-1.56,1.34-2.36,3.55-2.35v-0.1c0-0.41-0.16-1.08-1.22-1.08c-0.59,0-1.2,0.19-1.61,0.46l-0.29-1.02
			c0.44-0.28,1.22-0.55,2.16-0.55c1.92,0,2.47,1.26,2.47,2.63V15.16z M72.56,13.62c-1.07-0.01-2.09,0.22-2.09,1.16
			c0,0.61,0.38,0.89,0.86,0.89c0.61,0,1.04-0.41,1.19-0.85c0.04-0.11,0.04-0.23,0.04-0.34V13.62z"/>
		<path class="st0" d="M76.92,9.55c-0.5,0-0.84-0.38-0.84-0.84c0-0.48,0.34-0.85,0.85-0.85c0.52,0,0.84,0.37,0.85,0.85
			c0,0.46-0.33,0.84-0.85,0.84H76.92z M76.17,16.65v-6.21h1.51v6.21H76.17z"/>
		<path class="st0" d="M79.86,7.59h1.51v9.07h-1.51V7.59z"/>
		<path class="st0" d="M88.2,15.16c0,0.56,0.02,1.11,0.1,1.49h-1.36l-0.11-0.69h-0.04c-0.36,0.48-0.98,0.83-1.77,0.83
			c-1.2,0-1.88-0.91-1.88-1.85c0-1.56,1.34-2.36,3.55-2.35v-0.1c0-0.41-0.16-1.08-1.22-1.08c-0.59,0-1.2,0.19-1.61,0.46l-0.29-1.02
			c0.44-0.28,1.22-0.55,2.16-0.55c1.92,0,2.47,1.26,2.47,2.63V15.16z M86.72,13.62c-1.07-0.01-2.09,0.22-2.09,1.16
			c0,0.61,0.38,0.89,0.86,0.89c0.61,0,1.04-0.41,1.19-0.85c0.04-0.11,0.04-0.23,0.04-0.34V13.62z"/>
		<path class="st0" d="M90.33,7.59h1.51v3.71h0.02c0.37-0.6,1.02-0.99,1.92-0.99c1.46,0,2.51,1.26,2.49,3.15
			c0,2.23-1.36,3.34-2.71,3.34c-0.77,0-1.46-0.31-1.89-1.07h-0.02l-0.07,0.93h-1.29c0.02-0.42,0.05-1.11,0.05-1.73V7.59z
			 M91.84,14.09c0,0.13,0.01,0.26,0.04,0.37c0.16,0.64,0.69,1.1,1.34,1.1c0.95,0,1.52-0.78,1.52-2.04c0-1.1-0.5-1.99-1.51-1.99
			c-0.61,0-1.18,0.46-1.34,1.15c-0.02,0.11-0.05,0.25-0.05,0.41V14.09z"/>
		<path class="st0" d="M98.06,7.59h1.51v9.07h-1.51V7.59z"/>
		<path class="st0" d="M102.82,13.99c0.04,1.12,0.88,1.61,1.84,1.61c0.7,0,1.19-0.11,1.66-0.28l0.22,1.07
			c-0.52,0.23-1.23,0.4-2.09,0.4c-1.94,0-3.08-1.24-3.08-3.14c0-1.72,1.01-3.34,2.92-3.34c1.94,0,2.58,1.66,2.58,3.02
			c0,0.29-0.02,0.52-0.05,0.66H102.82z M105.45,12.89c0.01-0.57-0.23-1.52-1.24-1.52c-0.93,0-1.33,0.88-1.39,1.52H105.45z"/>
		<path class="st0" d="M114.33,16.79c-1.68,0-3-1.2-3-3.2c0-2.04,1.29-3.29,3.1-3.29c1.78,0,2.97,1.3,2.97,3.19
			c0,2.28-1.55,3.3-3.06,3.3H114.33z M114.38,15.66c0.86,0,1.46-0.87,1.46-2.13c0-0.97-0.42-2.09-1.45-2.09
			c-1.07,0-1.5,1.08-1.5,2.12c0,1.2,0.58,2.1,1.47,2.1H114.38z"/>
		<path class="st0" d="M119.18,12.29c0-0.71-0.02-1.31-0.05-1.85h1.31l0.07,0.93h0.04c0.27-0.48,0.92-1.07,1.92-1.07
			c1.04,0,2.13,0.7,2.13,2.66v3.68h-1.51v-3.51c0-0.89-0.32-1.57-1.14-1.57c-0.6,0-1.02,0.45-1.18,0.92
			c-0.05,0.13-0.07,0.32-0.07,0.5v3.66h-1.51V12.29z"/>
		<path class="st0" d="M131.56,8.85v1.59H133v1.17h-1.44v2.73c0,0.76,0.2,1.15,0.77,1.15c0.27,0,0.42-0.01,0.59-0.06l0.02,1.19
			c-0.22,0.09-0.63,0.17-1.09,0.17c-0.56,0-1.02-0.19-1.3-0.51c-0.33-0.36-0.48-0.93-0.48-1.75v-2.91h-0.85v-1.17h0.85V9.28
			L131.56,8.85z"/>
		<path class="st0" d="M134.68,7.59h1.51v3.7h0.02c0.18-0.29,0.44-0.54,0.75-0.7c0.31-0.18,0.66-0.28,1.04-0.28
			c1.02,0,2.09,0.7,2.09,2.69v3.66h-1.51v-3.49c0-0.89-0.32-1.58-1.16-1.58c-0.59,0-1.01,0.41-1.18,0.88
			c-0.05,0.14-0.06,0.31-0.06,0.47v3.72h-1.51V7.59z"/>
		<path class="st0" d="M143.32,13.99c0.04,1.12,0.88,1.61,1.84,1.61c0.7,0,1.19-0.11,1.66-0.28l0.22,1.07
			c-0.52,0.23-1.23,0.4-2.09,0.4c-1.94,0-3.08-1.24-3.08-3.14c0-1.72,1.01-3.34,2.92-3.34c1.94,0,2.58,1.66,2.58,3.02
			c0,0.29-0.02,0.52-0.05,0.66H143.32z M145.95,12.89c0.01-0.57-0.23-1.52-1.24-1.52c-0.93,0-1.33,0.88-1.39,1.52H145.95z"/>
	</g>
	<g>
		<g>
			<path class="st0" d="M37.59,24.99c-0.04-4.25,3.36-6.32,3.51-6.42c-1.92-2.91-4.9-3.31-5.95-3.34c-2.5-0.27-4.93,1.56-6.2,1.56
				c-1.3,0-3.27-1.53-5.38-1.48c-2.72,0.05-5.27,1.68-6.66,4.22c-2.88,5.18-0.73,12.78,2.03,16.97c1.38,2.05,3,4.34,5.11,4.26
				c2.07-0.09,2.84-1.37,5.33-1.37c2.47,0,3.2,1.37,5.35,1.31c2.22-0.04,3.61-2.06,4.94-4.13c1.6-2.35,2.24-4.66,2.26-4.78
				C41.88,31.77,37.63,30.09,37.59,24.99"/>
			<path class="st0" d="M33.52,12.48c1.11-1.44,1.87-3.41,1.66-5.4c-1.61,0.07-3.62,1.15-4.78,2.57c-1.03,1.24-1.94,3.28-1.71,5.2
				C30.5,14.99,32.36,13.9,33.52,12.48"/>
		</g>
		<g>
			<path class="st0" d="M67.45,40.41h-2.88L63,35.27h-5.48l-1.5,5.15h-2.8l5.43-17.51h3.35L67.45,40.41z M62.52,33.11l-1.43-4.57
				c-0.15-0.47-0.44-1.57-0.85-3.3h-0.05c-0.17,0.75-0.44,1.84-0.8,3.3l-1.4,4.57H62.52z"/>
			<path class="st0" d="M81.42,33.94c0,2.15-0.56,3.85-1.68,5.09c-1,1.11-2.25,1.66-3.73,1.66c-1.6,0-2.76-0.6-3.46-1.79h-0.05v6.65
				h-2.71V31.94c0-1.35-0.03-2.73-0.1-4.16h2.38l0.15,2h0.05c0.9-1.51,2.27-2.26,4.1-2.26c1.43,0,2.63,0.59,3.59,1.77
				C80.94,30.47,81.42,32.02,81.42,33.94 M78.67,34.05c0-1.23-0.27-2.24-0.8-3.04c-0.58-0.83-1.37-1.25-2.35-1.25
				c-0.67,0-1.28,0.23-1.81,0.69c-0.54,0.46-0.9,1.06-1.06,1.81c-0.08,0.35-0.12,0.63-0.12,0.85v2.11c0,0.92,0.27,1.69,0.81,2.32
				c0.54,0.63,1.25,0.95,2.12,0.95c1.02,0,1.81-0.4,2.38-1.22C78.38,36.45,78.67,35.38,78.67,34.05"/>
			<path class="st0" d="M95.41,33.94c0,2.15-0.56,3.85-1.68,5.09c-1,1.11-2.24,1.66-3.73,1.66c-1.6,0-2.75-0.6-3.45-1.79H86.5v6.65
				h-2.7V31.94c0-1.35-0.03-2.73-0.1-4.16h2.38l0.15,2h0.05c0.9-1.51,2.27-2.26,4.1-2.26c1.43,0,2.63,0.59,3.59,1.77
				C94.93,30.47,95.41,32.02,95.41,33.94 M92.66,34.05c0-1.23-0.27-2.24-0.8-3.04c-0.58-0.83-1.37-1.25-2.35-1.25
				c-0.67,0-1.27,0.23-1.82,0.69c-0.54,0.46-0.9,1.06-1.06,1.81c-0.09,0.35-0.13,0.63-0.13,0.85v2.11c0,0.92,0.27,1.69,0.81,2.32
				c0.54,0.63,1.25,0.95,2.12,0.95c1.02,0,1.81-0.4,2.38-1.22C92.37,36.45,92.66,35.38,92.66,34.05"/>
			<path class="st0" d="M111.06,35.5c0,1.49-0.5,2.7-1.5,3.64c-1.1,1.02-2.63,1.53-4.59,1.53c-1.81,0-3.27-0.36-4.37-1.09l0.63-2.34
				c1.19,0.75,2.49,1.12,3.91,1.12c1.02,0,1.81-0.24,2.38-0.71c0.57-0.48,0.85-1.12,0.85-1.91c0-0.71-0.23-1.31-0.7-1.8
				c-0.47-0.49-1.25-0.94-2.33-1.35c-2.95-1.15-4.43-2.82-4.43-5.02c0-1.44,0.52-2.62,1.55-3.54c1.03-0.92,2.41-1.38,4.13-1.38
				c1.54,0,2.81,0.28,3.83,0.83l-0.67,2.29c-0.95-0.54-2.03-0.8-3.23-0.8c-0.95,0-1.69,0.24-2.23,0.73
				c-0.45,0.43-0.67,0.96-0.67,1.58c0,0.69,0.26,1.27,0.77,1.71c0.45,0.42,1.27,0.87,2.45,1.35c1.45,0.61,2.52,1.32,3.2,2.13
				C110.72,33.28,111.06,34.29,111.06,35.5"/>
			<path class="st0" d="M119.99,29.89h-2.98v6.13c0,1.56,0.53,2.34,1.58,2.34c0.48,0,0.88-0.04,1.2-0.13l0.07,2.13
				c-0.53,0.21-1.23,0.31-2.1,0.31c-1.07,0-1.9-0.34-2.5-1.01c-0.6-0.68-0.9-1.81-0.9-3.4v-6.37h-1.78v-2.11h1.78v-2.31l2.65-0.83
				v3.14h2.98V29.89z"/>
			<path class="st0" d="M133.44,34c0,1.94-0.53,3.53-1.6,4.78c-1.12,1.28-2.61,1.92-4.46,1.92c-1.79,0-3.21-0.61-4.27-1.84
				c-1.06-1.23-1.59-2.78-1.59-4.65c0-1.96,0.54-3.56,1.64-4.81c1.09-1.25,2.56-1.87,4.42-1.87c1.78,0,3.22,0.62,4.31,1.84
				C132.92,30.57,133.44,32.11,133.44,34 M130.63,34.09c0-1.16-0.24-2.16-0.73-3c-0.57-1.01-1.38-1.51-2.43-1.51
				c-1.09,0-1.91,0.5-2.48,1.51c-0.49,0.83-0.72,1.85-0.72,3.05c0,1.16,0.24,2.16,0.72,2.99c0.58,1.01,1.4,1.51,2.46,1.51
				c1.03,0,1.84-0.51,2.42-1.54C130.38,36.26,130.63,35.25,130.63,34.09"/>
			<path class="st0" d="M142.22,30.25c-0.27-0.05-0.55-0.08-0.85-0.08c-0.95,0-1.69,0.37-2.2,1.12c-0.45,0.66-0.67,1.49-0.67,2.49
				v6.62h-2.7l0.02-8.65c0-1.46-0.03-2.78-0.1-3.98h2.35l0.1,2.42h0.07c0.28-0.83,0.74-1.5,1.35-2c0.6-0.45,1.25-0.68,1.95-0.68
				c0.25,0,0.48,0.02,0.67,0.05V30.25z"/>
			<path class="st0" d="M154.31,33.5c0,0.5-0.03,0.93-0.1,1.27h-8.11c0.03,1.25,0.42,2.2,1.18,2.86c0.68,0.59,1.57,0.88,2.65,0.88
				c1.2,0,2.29-0.2,3.28-0.6l0.42,1.95c-1.15,0.52-2.51,0.78-4.08,0.78c-1.88,0-3.37-0.58-4.44-1.73c-1.07-1.15-1.61-2.7-1.61-4.64
				c0-1.9,0.5-3.49,1.5-4.76c1.05-1.35,2.47-2.02,4.25-2.02c1.75,0,3.08,0.67,3.98,2.02C153.95,30.6,154.31,31.92,154.31,33.5
				 M151.73,32.77c0.02-0.83-0.16-1.55-0.52-2.16c-0.47-0.78-1.19-1.17-2.16-1.17c-0.88,0-1.6,0.38-2.15,1.14
				c-0.45,0.61-0.72,1.33-0.8,2.18H151.73z"/>
		</g>
	</g>
</g>
</svg>
