<?xml version="1.0" encoding="utf-8"?>
<!-- Generator: Adobe Illustrator 24.3.0, SVG Export Plug-In . SVG Version: 6.00 Build 0)  -->
<svg version="1.1" id="Layer_1" xmlns="http://www.w3.org/2000/svg" xmlns:xlink="http://www.w3.org/1999/xlink" x="0px" y="0px"
	 viewBox="0 0 108 32" style="enable-background:new 0 0 108 32;" xml:space="preserve">
<style type="text/css">
	.st0{fill:#020203;}
	.st1{fill:#FFFFFF;}
	.st2{fill-rule:evenodd;clip-rule:evenodd;fill:#C91430;}
</style>
<g>
	<g>
		<path class="st0" d="M6.13,32c-0.25,0-0.49,0-0.73-0.01c-0.45-0.01-0.99-0.04-1.51-0.13c-0.49-0.09-0.93-0.24-1.34-0.45
			c-0.42-0.22-0.8-0.5-1.13-0.84c-0.34-0.34-0.61-0.72-0.83-1.15c-0.21-0.42-0.35-0.86-0.44-1.37c-0.1-0.56-0.12-1.12-0.13-1.55
			C0.01,26.32,0,25.74,0,25.74V6.25c0,0,0.01-0.57,0.01-0.74c0.01-0.43,0.04-1,0.13-1.55c0.09-0.51,0.23-0.95,0.44-1.37
			C0.8,2.16,1.08,1.77,1.41,1.44C1.74,1.1,2.12,0.81,2.54,0.59C2.96,0.38,3.4,0.23,3.88,0.15c0.55-0.1,1.1-0.12,1.52-0.14L6.13,0
			h95.73l0.74,0.01c0.42,0.01,0.97,0.04,1.51,0.13c0.49,0.09,0.93,0.23,1.35,0.45c0.42,0.22,0.8,0.5,1.13,0.84
			c0.33,0.34,0.61,0.72,0.83,1.16c0.21,0.42,0.35,0.87,0.43,1.36c0.09,0.52,0.12,1.06,0.14,1.56c0,0.23,0,0.48,0,0.73
			C108,6.56,108,6.85,108,7.15v17.7c0,0.3,0,0.59-0.01,0.89c0,0.27,0,0.51,0,0.77c-0.02,0.49-0.05,1.02-0.14,1.53
			c-0.08,0.51-0.23,0.95-0.44,1.38c-0.22,0.43-0.5,0.82-0.82,1.14c-0.33,0.34-0.71,0.63-1.13,0.84c-0.42,0.22-0.85,0.36-1.35,0.45
			c-0.52,0.1-1.06,0.12-1.51,0.13C102.36,32,102.11,32,101.87,32l-0.88,0L6.13,32z"/>
	</g>
	<g>
		<g>
			<g>
				<path class="st1" d="M34.8,23.27l-1.13,3.11h-1.38l3.73-10.37h1.71l3.89,10.37h-1.48l-1.16-3.11H34.8z M38.62,22.09
					c-1-2.73-1.55-4.17-1.77-4.96h-0.02c-0.26,0.88-0.87,2.63-1.67,4.96H38.62z"/>
				<path class="st1" d="M43.98,25.45v3.91h-1.31v-8.69c0-0.62,0-1.26-0.02-1.84h1.28c0.03,0.25,0.05,0.71,0.05,1.19
					c0.41-0.76,1.19-1.37,2.5-1.37c1.77,0,3.05,1.46,3.05,3.76c0,2.7-1.47,4.15-3.32,4.15C44.97,26.56,44.32,26.05,43.98,25.45z
					 M48.16,22.46c0-1.6-0.74-2.7-2.04-2.7c-1.58,0-2.21,0.99-2.21,2.83c0,1.79,0.51,2.87,2.11,2.87
					C47.42,25.46,48.16,24.32,48.16,22.46z"/>
				<path class="st1" d="M51.9,25.45v3.91h-1.31v-8.69c0-0.62,0-1.26-0.02-1.84h1.28c0.03,0.25,0.05,0.71,0.05,1.19
					c0.41-0.76,1.19-1.37,2.5-1.37c1.77,0,3.05,1.46,3.05,3.76c0,2.7-1.47,4.15-3.32,4.15C52.89,26.56,52.24,26.05,51.9,25.45z
					 M56.09,22.46c0-1.6-0.74-2.7-2.04-2.7c-1.58,0-2.21,0.99-2.21,2.83c0,1.79,0.51,2.87,2.11,2.87
					C55.34,25.46,56.09,24.32,56.09,22.46z"/>
				<path class="st1" d="M70.95,26.38h-1.07c-0.07-0.2-0.11-0.66-0.13-1.41c-0.46,0.74-1.36,1.55-3.25,1.55
					c-3.02,0-4.63-2.27-4.63-5.22c0-3.11,1.72-5.44,4.88-5.44c2.43,0,3.97,1.3,4.27,3.16h-1.39c-0.36-1.16-1.2-2.01-2.91-2.01
					c-2.43,0-3.4,1.92-3.4,4.23c0,2.14,0.97,4.13,3.34,4.13c2.35,0,2.93-1.55,2.93-3.3v-0.11h-2.95v-1.18h4.3V26.38z"/>
				<path class="st1" d="M78.46,24.74c0,0.69,0.06,1.43,0.11,1.65h-1.26c-0.06-0.17-0.11-0.53-0.12-0.99
					c-0.27,0.5-0.88,1.17-2.36,1.17c-1.8,0-2.57-1.16-2.57-2.31c0-1.69,1.34-2.46,3.61-2.46c0.53,0,1.02,0,1.3,0v-0.64
					c0-0.67-0.21-1.48-1.64-1.48c-1.28,0-1.49,0.63-1.63,1.22h-1.28c0.1-1.04,0.75-2.25,2.95-2.24c1.87,0,2.9,0.76,2.9,2.48V24.74z
					 M77.18,22.7c-0.24,0-0.82,0-1.24,0c-1.52,0-2.34,0.42-2.34,1.48c0,0.79,0.54,1.36,1.49,1.36c1.84,0,2.09-1.23,2.09-2.6V22.7z"
					/>
				<path class="st1" d="M79.94,26.38V15.44h1.32v10.94H79.94z"/>
				<path class="st1" d="M83.51,26.38V15.44h1.32v10.94H83.51z"/>
				<path class="st1" d="M87.48,22.84c0.01,1.54,0.79,2.63,2.09,2.63c1.21,0,1.6-0.62,1.84-1.17h1.33c-0.3,0.97-1.12,2.26-3.21,2.26
					c-2.4,0-3.38-1.93-3.38-3.88c0-2.25,1.14-4.04,3.46-4.04c2.46,0,3.27,1.96,3.27,3.57c0,0.23,0,0.42-0.02,0.63H87.48z
					 M91.55,21.92c-0.01-1.24-0.65-2.24-1.95-2.24c-1.34,0-1.93,0.93-2.07,2.24H91.55z"/>
				<path class="st1" d="M94.18,20.88c0-1.06-0.01-1.65-0.01-2.05h1.29c0.02,0.21,0.04,0.81,0.04,1.54c0.4-1.02,1.31-1.68,2.57-1.72
					v1.3c-1.57,0.05-2.57,0.86-2.57,2.77v3.67h-1.32V20.88z"/>
				<path class="st1" d="M100.46,18.83c1.23,3.62,1.91,5.63,2.11,6.39h0.02c0.25-0.86,0.79-2.59,2.04-6.39h1.33l-2.75,7.91
					c-0.78,2.21-1.35,2.77-2.91,2.77c-0.24,0-0.53-0.01-0.82-0.05v-1.14c0.19,0.03,0.42,0.04,0.63,0.04c0.97,0,1.33-0.42,1.79-1.68
					l-2.86-7.85H100.46z"/>
			</g>
		</g>
		<g>
			<g>
				<path class="st1" d="M35.37,8.74h-2.69v1.89h2.96l-0.09,0.61h-3.57V5.89h3.53V6.5h-2.82v1.63h2.69V8.74z"/>
				<path class="st1" d="M39.58,11.24l-1.44-2.2h-0.01l-1.44,2.2h-0.8l1.83-2.71l-1.76-2.64h0.83l1.37,2.08h0.01l1.4-2.08h0.79
					l-1.79,2.58l1.86,2.77H39.58z"/>
				<path class="st1" d="M41.1,5.89h2.06c1.05,0,1.77,0.58,1.77,1.56c0,1.04-0.76,1.6-1.82,1.6h-1.29v2.2H41.1V5.89z M41.83,8.44
					h1.25c0.74,0,1.11-0.36,1.11-0.98c0-0.65-0.45-0.98-1.08-0.98h-1.28V8.44z"/>
				<path class="st1" d="M46,5.89h0.72v4.74h2.82l-0.1,0.61H46V5.89z"/>
				<path class="st1" d="M55.08,8.53c0,1.47-0.83,2.78-2.54,2.78c-1.59,0-2.48-1.22-2.48-2.75c0-1.53,0.91-2.75,2.55-2.75
					C54.13,5.81,55.08,6.94,55.08,8.53z M50.81,8.54c0,1.16,0.6,2.17,1.76,2.17c1.26,0,1.76-1.02,1.76-2.17
					c0-1.15-0.57-2.13-1.76-2.13C51.34,6.42,50.81,7.4,50.81,8.54z"/>
				<path class="st1" d="M56.91,8.88v2.36H56.2V5.89h2.12c1.11,0,1.71,0.6,1.71,1.43c0,0.7-0.4,1.12-0.92,1.26
					c0.44,0.12,0.83,0.44,0.83,1.37v0.23c0,0.37-0.02,0.84,0.07,1.06h-0.7c-0.1-0.23-0.09-0.65-0.09-1.15V9.97
					c0-0.76-0.22-1.09-1.19-1.09H56.91z M56.91,8.29h1.18c0.83,0,1.19-0.31,1.19-0.91c0-0.57-0.38-0.89-1.11-0.89h-1.26V8.29z"/>
				<path class="st1" d="M64.58,8.74h-2.69v1.89h2.96l-0.09,0.61h-3.57V5.89h3.53V6.5h-2.82v1.63h2.69V8.74z"/>
				<path class="st1" d="M68.51,5.89v5.35h-0.72V5.89H68.51z"/>
				<path class="st1" d="M71.03,6.5h-1.75V5.89h4.22V6.5h-1.75v4.74h-0.72V6.5z"/>
				<path class="st1" d="M80.96,8.53c0,1.47-0.83,2.78-2.54,2.78c-1.59,0-2.48-1.22-2.48-2.75c0-1.53,0.91-2.75,2.55-2.75
					C80.01,5.81,80.96,6.94,80.96,8.53z M76.69,8.54c0,1.16,0.6,2.17,1.76,2.17c1.26,0,1.76-1.02,1.76-2.17
					c0-1.15-0.57-2.13-1.76-2.13C77.23,6.42,76.69,7.4,76.69,8.54z"/>
				<path class="st1" d="M82.08,11.24V5.89h0.95c0.78,1.25,2.47,3.91,2.77,4.49h0.01c-0.05-0.69-0.05-1.53-0.05-2.4V5.89h0.68v5.35
					h-0.89c-0.72-1.16-2.48-4.02-2.82-4.62h-0.01c0.04,0.61,0.04,1.52,0.04,2.48v2.14H82.08z"/>
			</g>
		</g>
	</g>
	<g>
		<g id="形状_1_拷贝_25_4_">
			<g>
				<path class="st2" d="M21.4,5.41h-9.09c-4.28,0-5.85,1.6-5.85,5.96v9.26c0,4.36,1.57,5.96,5.85,5.96h9.09
					c4.28,0,5.85-1.6,5.85-5.96v-9.26C27.25,7,25.68,5.41,21.4,5.41z"/>
			</g>
		</g>
		<g>
			<path class="st1" d="M10.58,16h0.55v2.77h-0.55v-1.12H9.33v1.12H8.78V16h0.55v1.12h1.25V16z M13.68,17.59
				c0,0.45-0.22,0.69-0.62,0.69c-0.4,0-0.62-0.25-0.62-0.71V16h-0.55v1.58c0,0.78,0.42,1.23,1.17,1.23c0.75,0,1.18-0.46,1.18-1.25
				V16h-0.55V17.59z M20.06,17.91L19.44,16h-0.45l-0.62,1.9l-0.6-1.9h-0.59l0.95,2.77h0.46l0.62-1.82l0.62,1.82h0.46L21.23,16h-0.57
				L20.06,17.91z M22.22,17.58h1v-0.5h-1v-0.57h1.46V16h-2v2.77h2.05v-0.5h-1.51V17.58z M24.39,18.77h0.54V16h-0.54V18.77z
				 M15.33,18.19l-0.25,0.58h-0.56l1.2-2.77h0.49l1.19,2.77h-0.58l-0.24-0.58H15.33z M15.53,17.69h0.83l-0.42-0.99L15.53,17.69z"/>
			<path class="st1" d="M16.86,12.48c-1.91,0-3.46-1.58-3.46-3.53h0.49c0,1.67,1.33,3.03,2.97,3.03c1.64,0,2.97-1.36,2.97-3.03h0.49
				C20.32,10.89,18.76,12.48,16.86,12.48z"/>
		</g>
	</g>
</g>
</svg>
