<?xml version="1.0" encoding="utf-8"?>
<!-- Generator: Adobe Illustrator 24.3.0, SVG Export Plug-In . SVG Version: 6.00 Build 0)  -->
<svg version="1.1" id="Layer_1" xmlns="http://www.w3.org/2000/svg" xmlns:xlink="http://www.w3.org/1999/xlink" x="0px" y="0px"
	 viewBox="0 0 108 32" style="enable-background:new 0 0 108 32;" xml:space="preserve">
<style type="text/css">
	.st0{fill:#FFFFFF;}
	.st1{fill:#70C9F3;}
	.st2{fill:url(#SVGID_1_);}
	.st3{fill:url(#SVGID_2_);}
	.st4{fill:url(#SVGID_3_);}
</style>
<g>
	<g>
		<path d="M100.62,32H7.38C3.31,32,0,28.69,0,24.62V7.38C0,3.31,3.31,0,7.38,0h93.24c4.08,0,7.38,3.31,7.38,7.38v17.24
			C108,28.69,104.69,32,100.62,32z"/>
	</g>
	<g>
		<path class="st0" d="M56.78,17.95c-1.89,0-3.43,1.47-3.43,3.51c0,2.02,1.54,3.51,3.43,3.51c1.89,0,3.43-1.49,3.43-3.51
			C60.22,19.43,58.67,17.95,56.78,17.95z M56.78,23.58c-1.04,0-1.93-0.88-1.93-2.12c0-1.26,0.89-2.12,1.93-2.12
			c1.04,0,1.93,0.86,1.93,2.12C58.71,22.71,57.82,23.58,56.78,23.58z M49.29,17.95c-1.89,0-3.43,1.47-3.43,3.51
			c0,2.02,1.54,3.51,3.43,3.51c1.89,0,3.43-1.49,3.43-3.51C52.73,19.43,51.18,17.95,49.29,17.95z M49.29,23.58
			c-1.04,0-1.93-0.88-1.93-2.12c0-1.26,0.89-2.12,1.93-2.12c1.04,0,1.93,0.86,1.93,2.12C51.22,22.71,50.33,23.58,49.29,23.58z
			 M40.38,19.03v1.49h3.47c-0.1,0.84-0.38,1.45-0.79,1.87c-0.51,0.52-1.3,1.09-2.68,1.09c-2.14,0-3.81-1.77-3.81-3.96
			s1.67-3.96,3.81-3.96c1.15,0,2,0.46,2.62,1.06l1.02-1.05c-0.87-0.85-2.02-1.5-3.64-1.5c-2.93,0-5.39,2.44-5.39,5.44
			c0,3,2.46,5.44,5.39,5.44c1.58,0,2.77-0.53,3.71-1.53c0.96-0.98,1.26-2.36,1.26-3.48c0-0.35-0.03-0.66-0.08-0.93H40.38z
			 M76.82,20.18c-0.28-0.78-1.15-2.23-2.93-2.23c-1.76,0-3.23,1.42-3.23,3.51c0,1.97,1.45,3.51,3.39,3.51
			c1.57,0,2.47-0.98,2.85-1.55l-1.17-0.8c-0.39,0.58-0.92,0.97-1.68,0.97c-0.76,0-1.31-0.36-1.66-1.06l4.57-1.94L76.82,20.18z
			 M72.16,21.35c-0.04-1.35,1.02-2.05,1.79-2.05c0.6,0,1.1,0.31,1.27,0.74L72.16,21.35z M68.44,24.75h1.5V14.45h-1.5V24.75z
			 M65.98,18.74h-0.05c-0.34-0.41-0.98-0.78-1.8-0.78c-1.71,0-3.28,1.54-3.28,3.52c0,1.97,1.57,3.49,3.28,3.49
			c0.82,0,1.46-0.37,1.8-0.8h0.05v0.5c0,1.34-0.7,2.06-1.83,2.06c-0.92,0-1.49-0.68-1.72-1.25l-1.31,0.56
			c0.38,0.93,1.37,2.07,3.03,2.07c1.76,0,3.25-1.06,3.25-3.65v-6.29h-1.43V18.74z M64.25,23.58c-1.04,0-1.9-0.89-1.9-2.11
			c0-1.24,0.87-2.14,1.9-2.14c1.02,0,1.83,0.9,1.83,2.14C66.08,22.69,65.28,23.58,64.25,23.58z M83.86,14.45h-3.6v10.31h1.5v-3.9
			h2.1c1.66,0,3.3-1.23,3.3-3.2S85.52,14.45,83.86,14.45z M83.9,19.41h-2.13v-3.53h2.13c1.12,0,1.76,0.95,1.76,1.77
			C85.66,18.45,85.02,19.41,83.9,19.41z M93.17,17.93c-1.09,0-2.21,0.49-2.68,1.58l1.33,0.57c0.28-0.57,0.81-0.76,1.37-0.76
			c0.78,0,1.57,0.48,1.58,1.33v0.11c-0.27-0.16-0.85-0.4-1.57-0.4c-1.44,0-2.9,0.81-2.9,2.32c0,1.38,1.18,2.27,2.5,2.27
			c1.01,0,1.57-0.46,1.91-1.01h0.05v0.8h1.45v-3.95C96.22,18.95,94.89,17.93,93.17,17.93z M92.99,23.58c-0.49,0-1.18-0.25-1.18-0.88
			c0-0.8,0.85-1.1,1.59-1.1c0.66,0,0.97,0.15,1.37,0.34C94.66,22.91,93.86,23.58,92.99,23.58z M101.5,18.16l-1.72,4.47h-0.05
			l-1.78-4.47h-1.62L99,24.4l-1.53,3.47h1.56l4.13-9.72H101.5z M87.98,24.75h1.5V14.45h-1.5V24.75z"/>
		<g>
			<path class="st1" d="M10.38,6.24c-0.23,0.25-0.37,0.65-0.37,1.16v18.22c0,0.51,0.14,0.9,0.37,1.16l0.06,0.06l9.95-10.2v-0.12
				v-0.12l-9.95-10.2L10.38,6.24z"/>
			<linearGradient id="SVGID_1_" gradientUnits="userSpaceOnUse" x1="26.9892" y1="16.5089" x2="7.5464" y2="16.5089">
				<stop  offset="0" style="stop-color:#FFE000"/>
				<stop  offset="0.1941" style="stop-color:#FED000"/>
				<stop  offset="0.5469" style="stop-color:#F9B400"/>
				<stop  offset="0.8279" style="stop-color:#F6A200"/>
				<stop  offset="1" style="stop-color:#F59B00"/>
			</linearGradient>
			<path class="st2" d="M23.71,20.03l-3.32-3.4v-0.12v-0.12l3.32-3.4l0.07,0.04l3.93,2.29c1.12,0.65,1.12,1.72,0,2.38l-3.93,2.29
				L23.71,20.03z"/>
			<linearGradient id="SVGID_2_" gradientUnits="userSpaceOnUse" x1="21.9629" y1="18.3758" x2="3.4467" y2="36.892">
				<stop  offset="0" style="stop-color:#E7383D"/>
				<stop  offset="1" style="stop-color:#C81166"/>
			</linearGradient>
			<path class="st3" d="M23.79,19.99l-3.39-3.48L10.38,26.77c0.37,0.4,0.98,0.45,1.67,0.05L23.79,19.99"/>
			<linearGradient id="SVGID_3_" gradientUnits="userSpaceOnUse" x1="3.3642" y1="-3.9574" x2="18.4822" y2="11.1606">
				<stop  offset="0" style="stop-color:#229966"/>
				<stop  offset="0.3168" style="stop-color:#4EA663"/>
				<stop  offset="0.7398" style="stop-color:#70B65D"/>
				<stop  offset="1" style="stop-color:#7CBC5B"/>
			</linearGradient>
			<path class="st4" d="M23.79,13.03L12.05,6.19c-0.69-0.4-1.3-0.35-1.67,0.05l10.01,10.26L23.79,13.03z"/>
		</g>
	</g>
	<g>
		<path class="st0" d="M38.86,6.83c-0.3-0.27-0.7-0.45-1.14-0.45c-0.99,0-1.75,0.84-1.75,1.87c0,1.03,0.76,1.86,1.75,1.86
			c0.85,0,1.47-0.51,1.51-1.31h-1.35V8.22h2.07c0,1.7-0.89,2.51-2.24,2.51c-1.35,0-2.39-1.11-2.39-2.48c0-1.38,1.04-2.49,2.39-2.49
			c0.62,0,1.19,0.25,1.6,0.64L38.86,6.83z"/>
		<path class="st0" d="M43.63,5.81v0.61h-2.16v1.55h1.89v0.61h-1.89v1.46h2.23v0.61h-2.87V5.81H43.63z"/>
		<path class="st0" d="M47.77,5.81v0.62h-1.44v4.23h-0.65V6.42h-1.44V5.81H47.77z"/>
		<path class="st0" d="M50.83,5.81v4.85H50.2V5.81H50.83z"/>
		<path class="st0" d="M55.19,5.81v0.62h-1.44v4.23h-0.65V6.42h-1.44V5.81H55.19z"/>
		<path class="st0" d="M59.69,5.75c1.35,0,2.4,1.11,2.4,2.49c0,1.37-1.05,2.48-2.4,2.48c-1.35,0-2.39-1.11-2.39-2.48
			C57.3,6.86,58.35,5.75,59.69,5.75z M59.69,10.09c1,0,1.76-0.82,1.76-1.85c0-1.03-0.76-1.86-1.76-1.86c-0.99,0-1.75,0.83-1.75,1.86
			C57.94,9.27,58.7,10.09,59.69,10.09z"/>
		<path class="st0" d="M65.87,10.66L63.72,7v3.65h-0.64V5.81h0.63l2.14,3.62V5.81h0.64v4.85H65.87z"/>
	</g>
</g>
</svg>
