<?xml version="1.0" encoding="utf-8"?>
<!-- Generator: Adobe Illustrator 24.3.0, SVG Export Plug-In . SVG Version: 6.00 Build 0)  -->
<svg version="1.1" id="Layer_1" xmlns="http://www.w3.org/2000/svg" xmlns:xlink="http://www.w3.org/1999/xlink" x="0px" y="0px"
	 viewBox="0 0 170 51" style="enable-background:new 0 0 170 51;" xml:space="preserve">
<style type="text/css">
	.st0{fill:#FFFFFF;}
	.st1{fill:#70C9F3;}
	.st2{fill:url(#SVGID_1_);}
	.st3{fill:url(#SVGID_2_);}
	.st4{fill:url(#SVGID_3_);}
</style>
<g>
	<g>
		<path d="M162.62,51H7.38C3.31,51,0,47.69,0,43.62V7.38C0,3.31,3.31,0,7.38,0h155.24c4.08,0,7.38,3.31,7.38,7.38v36.24
			C170,47.69,166.69,51,162.62,51z"/>
	</g>
	<g>
		<path class="st0" d="M89.38,28.61c-2.98,0-5.4,2.35-5.4,5.59c0,3.22,2.43,5.59,5.4,5.59c2.98,0,5.4-2.37,5.4-5.59
			C94.78,30.96,92.36,28.61,89.38,28.61z M89.38,37.59c-1.63,0-3.04-1.4-3.04-3.39c0-2.01,1.41-3.39,3.04-3.39
			c1.63,0,3.04,1.38,3.04,3.39C92.42,36.19,91.01,37.59,89.38,37.59z M77.59,28.61c-2.98,0-5.4,2.35-5.4,5.59
			c0,3.22,2.43,5.59,5.4,5.59c2.98,0,5.4-2.37,5.4-5.59C82.99,30.96,80.57,28.61,77.59,28.61z M77.59,37.59
			c-1.63,0-3.04-1.4-3.04-3.39c0-2.01,1.41-3.39,3.04-3.39c1.63,0,3.04,1.38,3.04,3.39C80.63,36.19,79.22,37.59,77.59,37.59z
			 M63.57,30.33v2.37h5.47c-0.16,1.33-0.59,2.31-1.24,2.98c-0.8,0.83-2.04,1.74-4.22,1.74c-3.36,0-6-2.81-6-6.31s2.63-6.31,6-6.31
			c1.82,0,3.14,0.74,4.12,1.69l1.61-1.67c-1.37-1.35-3.18-2.39-5.73-2.39c-4.61,0-8.48,3.89-8.48,8.68c0,4.78,3.87,8.68,8.48,8.68
			c2.49,0,4.36-0.85,5.83-2.43c1.51-1.57,1.98-3.77,1.98-5.55c0-0.55-0.04-1.06-0.12-1.48H63.57z M120.92,32.17
			c-0.45-1.25-1.81-3.56-4.61-3.56c-2.77,0-5.08,2.26-5.08,5.59c0,3.13,2.28,5.59,5.34,5.59c2.47,0,3.9-1.57,4.49-2.48l-1.84-1.27
			c-0.61,0.93-1.45,1.54-2.65,1.54c-1.2,0-2.06-0.57-2.61-1.69l7.2-3.09L120.92,32.17z M113.58,34.03
			c-0.06-2.16,1.61-3.26,2.81-3.26c0.94,0,1.73,0.49,2,1.19L113.58,34.03z M107.72,39.45h2.37V23.02h-2.37V39.45z M103.85,29.86
			h-0.08c-0.53-0.66-1.55-1.25-2.83-1.25c-2.69,0-5.16,2.46-5.16,5.61c0,3.13,2.47,5.57,5.16,5.57c1.28,0,2.3-0.59,2.83-1.27h0.08
			v0.8c0,2.14-1.1,3.28-2.88,3.28c-1.45,0-2.35-1.08-2.71-1.99L96.2,41.5c0.59,1.48,2.16,3.3,4.77,3.3c2.77,0,5.12-1.69,5.12-5.82
			V28.95h-2.24V29.86z M101.14,37.59c-1.63,0-3-1.42-3-3.37c0-1.97,1.37-3.41,3-3.41c1.61,0,2.88,1.44,2.88,3.41
			C104.01,36.17,102.75,37.59,101.14,37.59z M132,23.02h-5.66v16.42h2.36v-6.22h3.3c2.62,0,5.19-1.97,5.19-5.1
			S134.62,23.02,132,23.02z M132.06,30.94h-3.36v-5.63h3.36c1.77,0,2.77,1.52,2.77,2.81C134.83,29.4,133.83,30.94,132.06,30.94z
			 M146.66,28.58c-1.71,0-3.48,0.78-4.21,2.51l2.1,0.91c0.45-0.91,1.28-1.2,2.16-1.2c1.22,0,2.46,0.76,2.48,2.11v0.17
			c-0.43-0.25-1.34-0.63-2.46-0.63c-2.26,0-4.56,1.29-4.56,3.7c0,2.2,1.85,3.61,3.93,3.61c1.59,0,2.46-0.74,3.01-1.61h0.08v1.27
			h2.28v-6.3C151.46,30.21,149.37,28.58,146.66,28.58z M146.37,37.58c-0.77,0-1.85-0.4-1.85-1.39c0-1.27,1.34-1.75,2.5-1.75
			c1.04,0,1.53,0.23,2.16,0.55C149,36.51,147.74,37.58,146.37,37.58z M159.77,28.94l-2.71,7.12h-0.08l-2.81-7.12h-2.54l4.21,9.95
			l-2.4,5.54h2.46l6.49-15.49H159.77z M138.49,39.45h2.36V23.02h-2.36V39.45z"/>
		<g>
			<path class="st1" d="M16.34,9.95c-0.37,0.4-0.59,1.03-0.59,1.84v29.03c0,0.81,0.22,1.44,0.59,1.84l0.09,0.09L32.1,26.5v-0.19
				v-0.19L16.43,9.86L16.34,9.95z"/>
			<linearGradient id="SVGID_1_" gradientUnits="userSpaceOnUse" x1="42.483" y1="26.311" x2="11.8786" y2="26.311">
				<stop  offset="0" style="stop-color:#FFE000"/>
				<stop  offset="0.1941" style="stop-color:#FED000"/>
				<stop  offset="0.5469" style="stop-color:#F9B400"/>
				<stop  offset="0.8279" style="stop-color:#F6A200"/>
				<stop  offset="1" style="stop-color:#F59B00"/>
			</linearGradient>
			<path class="st2" d="M37.32,31.93L32.1,26.5v-0.19v-0.19l5.22-5.42l0.12,0.07l6.19,3.65c1.77,1.04,1.77,2.75,0,3.79l-6.19,3.65
				L37.32,31.93z"/>
			<linearGradient id="SVGID_2_" gradientUnits="userSpaceOnUse" x1="34.5869" y1="29.2683" x2="5.256" y2="58.5992">
				<stop  offset="0" style="stop-color:#E7383D"/>
				<stop  offset="1" style="stop-color:#C81166"/>
			</linearGradient>
			<path class="st3" d="M37.44,31.86l-5.34-5.54L16.34,42.67c0.58,0.64,1.54,0.72,2.63,0.08L37.44,31.86"/>
			<linearGradient id="SVGID_3_" gradientUnits="userSpaceOnUse" x1="5.1253" y1="-6.1089" x2="29.0732" y2="17.839">
				<stop  offset="0" style="stop-color:#229966"/>
				<stop  offset="0.3168" style="stop-color:#4EA663"/>
				<stop  offset="0.7398" style="stop-color:#70B65D"/>
				<stop  offset="1" style="stop-color:#7CBC5B"/>
			</linearGradient>
			<path class="st4" d="M37.44,20.77L18.97,9.87c-1.08-0.64-2.05-0.56-2.63,0.08L32.1,26.31L37.44,20.77z"/>
		</g>
	</g>
	<g>
		<path class="st0" d="M61.16,10.88c-0.48-0.44-1.1-0.72-1.79-0.72c-1.56,0-2.76,1.33-2.76,2.97c0,1.64,1.2,2.96,2.76,2.96
			c1.34,0,2.31-0.81,2.38-2.09h-2.12V13.1h3.26c0,2.72-1.39,3.99-3.52,3.99c-2.12,0-3.76-1.77-3.76-3.96c0-2.2,1.64-3.97,3.76-3.97
			c0.98,0,1.87,0.39,2.52,1.02L61.16,10.88z"/>
		<path class="st0" d="M68.68,9.25v0.98h-3.4v2.47h2.97v0.98h-2.97v2.33h3.51v0.98h-4.52V9.25H68.68z"/>
		<path class="st0" d="M75.19,9.25v0.99h-2.26v6.74h-1.02v-6.74h-2.26V9.25H75.19z"/>
		<path class="st0" d="M80.02,9.25v7.73h-1V9.25H80.02z"/>
		<path class="st0" d="M86.87,9.25v0.99h-2.26v6.74H83.6v-6.74h-2.26V9.25H86.87z"/>
		<path class="st0" d="M93.96,9.16c2.13,0,3.78,1.77,3.78,3.97c0,2.19-1.65,3.96-3.78,3.96c-2.12,0-3.76-1.77-3.76-3.96
			C90.2,10.94,91.84,9.16,93.96,9.16z M93.96,16.08c1.57,0,2.77-1.31,2.77-2.95c0-1.64-1.2-2.96-2.77-2.96
			c-1.56,0-2.76,1.32-2.76,2.96C91.21,14.77,92.41,16.08,93.96,16.08z"/>
		<path class="st0" d="M103.69,16.98l-3.39-5.82v5.82h-1.01V9.25h0.99l3.36,5.78V9.25h1.01v7.73H103.69z"/>
	</g>
</g>
</svg>
