<svg id="group-714" xmlns="http://www.w3.org/2000/svg" width="213.611" height="213.611" viewBox="0 0 213.611 213.611">
  <defs>
    <style>
      .cls-1 {
        fill: #e16036;
      }
    </style>
  </defs>
  <path id="Path_3" data-name="Path 3" class="cls-1" d="M98.518,143.433a6.633,6.633,0,0,0-4.72-1.955,6.52,6.52,0,0,0-4.72,1.955,6.633,6.633,0,0,0-1.955,4.72,6.52,6.52,0,0,0,1.955,4.72l.048.048,19.6,19.12H66.142c-9.727,0-16.021-3.576-19.835-11.205-4.005-8.106-4.482-19.788-4.482-27.893V68.431a33.359,33.359,0,1,0-13.351-.191V132.9c0,7.009,0,20.074,4.482,31.136C38.631,178,50.122,185.345,66.142,185.345h42.77L89.983,204.512a6.735,6.735,0,0,0,0,9.441l.048.048a6.9,6.9,0,0,0,4.673,1.86,6.442,6.442,0,0,0,4.72-1.955l27.464-27.369a10.534,10.534,0,0,0,3.1-7.486,10.315,10.315,0,0,0-3.1-7.391ZM35.627,55.653A20.026,20.026,0,1,1,55.653,35.627,20.024,20.024,0,0,1,35.627,55.653Z" transform="translate(-2.25 -2.25)"/>
  <path id="Path_4" data-name="Path 4" class="cls-1" d="M116.426,149.87V85.215c0-7.009,0-20.074-4.482-31.136C106.27,40.156,94.779,32.766,78.758,32.766H35.988L54.918,13.6a6.735,6.735,0,0,0,0-9.441L54.87,4.11A6.9,6.9,0,0,0,50.2,2.25,6.442,6.442,0,0,0,45.477,4.2L18.013,31.574a10.534,10.534,0,0,0-3.1,7.486,10.315,10.315,0,0,0,3.1,7.391L46.43,74.773a6.633,6.633,0,0,0,4.72,1.955,6.52,6.52,0,0,0,4.72-1.955,6.633,6.633,0,0,0,1.955-4.72,6.52,6.52,0,0,0-1.955-4.72l-.048-.048L36.179,46.116H78.758c9.727,0,16.021,3.576,19.835,11.205,4.005,8.106,4.482,19.788,4.482,27.893v64.465a33.359,33.359,0,1,0,13.351.191Zm-7.152,52.64A20.026,20.026,0,1,1,129.3,182.484,20.024,20.024,0,0,1,109.274,202.51Z" transform="translate(70.96 -2.25)"/>
</svg>
