<svg xmlns="http://www.w3.org/2000/svg" width="305.158" height="244.126" viewBox="0 0 305.158 244.126">
  <defs>
    <style>
      .cls-1 {
        fill: #65b8f9;
      }
    </style>
  </defs>
  <path id="icon-crown" class="cls-1" d="M251.755,213.611H53.4a7.651,7.651,0,0,0-7.629,7.629V236.5a7.651,7.651,0,0,0,7.629,7.629H251.755a7.651,7.651,0,0,0,7.629-7.629V221.239A7.651,7.651,0,0,0,251.755,213.611ZM282.271,61.032a22.893,22.893,0,0,0-22.887,22.887,22.422,22.422,0,0,0,2.1,9.441l-34.521,20.694a15.237,15.237,0,0,1-21.075-5.531l-38.86-67.993a22.887,22.887,0,1,0-28.895,0l-38.86,67.993A15.248,15.248,0,0,1,78.2,114.053L43.723,93.359a22.879,22.879,0,1,0-20.837,13.446,23.371,23.371,0,0,0,3.671-.381l34.473,91.929H244.126L278.6,106.424a23.371,23.371,0,0,0,3.671.381,22.887,22.887,0,1,0,0-45.774Z"/>
</svg>
