<svg xmlns="http://www.w3.org/2000/svg" width="26.479" height="26.487" viewBox="0 0 26.479 26.487">
    <path fill="none" stroke="#e16036" stroke-width="1.25px" d="M27.445 17a3.218 3.218 0 0 1 2.065-3 12.756 12.756 0 0 0-1.544-3.719 3.261 3.261 0 0 1-1.309.28 3.211 3.211 0 0 1-2.937-4.52A12.718 12.718 0 0 0 20.007 4.5a3.215 3.215 0 0 1-6 0 12.756 12.756 0 0 0-3.719 1.544 3.211 3.211 0 0 1-2.937 4.52 3.155 3.155 0 0 1-1.309-.28A13.038 13.038 0 0 0 4.5 14.009a3.217 3.217 0 0 1 .007 6 12.756 12.756 0 0 0 1.543 3.723 3.212 3.212 0 0 1 4.24 4.24 12.831 12.831 0 0 0 3.719 1.544 3.21 3.21 0 0 1 5.992 0 12.756 12.756 0 0 0 3.719-1.544 3.216 3.216 0 0 1 4.24-4.24 12.831 12.831 0 0 0 1.54-3.719A3.234 3.234 0 0 1 27.445 17zm-10.381 5.2a5.21 5.21 0 1 1 5.209-5.2 5.209 5.209 0 0 1-5.21 5.208z" transform="translate(-3.765 -3.764)"/>
</svg>
