<svg xmlns="http://www.w3.org/2000/svg" xmlns:xlink="http://www.w3.org/1999/xlink" width="1180" height="400" viewBox="0 0 1180 400">
  <defs>
    <clipPath id="clip-Web_1920_1">
      <rect width="1180" height="400"/>
    </clipPath>
  </defs>
  <g id="Web_1920_1" data-name="Web 1920 – 1" clip-path="url(#clip-Web_1920_1)">
    <rect width="1180" height="400" fill="#fff"/>
    <path id="Exclusion_1" data-name="Exclusion 1" d="M843,649.2a13.908,13.908,0,0,1-9.9-4.1l-70.6-70.6,47.6-47.6a14.017,14.017,0,0,0,0-19.8l-47.6-47.6,19-19,0,0h0l-19-19,47.6-47.6a14.017,14.017,0,0,0,0-19.8l-47.6-47.6L818,251h0l-55.5-55.5,47.6-47.6a14.016,14.016,0,0,0,0-19.8L762.5,80.5,833.1,9.9a14,14,0,0,1,19.8,0L912,69l-59.1,59.1a14,14,0,0,0,0,19.8L869,164l-16.1,16.1a14,14,0,0,0,0,19.8L886,233l-18,18-15.1-15.1a14,14,0,0,0-19.8,0L818,251l15.1,15.1a14,14,0,0,0,19.8,0L868,251l18.5,18.5-33.6,33.6a14,14,0,0,0,0,19.8l40.6,40.6-33,33,44,44L887,458l76.5,76.5L852.9,645.1A13.909,13.909,0,0,1,843,649.2ZM781.5,440.5l51.6,51.6a14,14,0,0,0,19.8,0L887,458h0l-34.1-34.1a14,14,0,0,1,0-19.8l7.6-7.6-7.6-7.6a14,14,0,0,0-19.8,0ZM682,649.2a13.907,13.907,0,0,1-9.9-4.1L565.5,538.5,642,462h0l-21.5-21.5,40-40-33-33,44.6-44.6a14,14,0,0,0,0-19.8l-33.6-33.6L657,251l-18-18,33.1-33.1a14,14,0,0,0,0-19.8L656,164l16.1-16.1a14.016,14.016,0,0,0,0-19.8L613,69,672.1,9.9a14,14,0,0,1,19.8,0l70.6,70.6-47.6,47.6a14,14,0,0,0,0,19.8l47.6,47.6L707,251l55.5,55.5-47.6,47.6a14.016,14.016,0,0,0,0,19.8l47.6,47.6-19,19h0l-51.6-51.6a14,14,0,0,0-19.8,0l-11.6,11.6,11.6,11.6a14,14,0,0,1,0,19.8L642,462l30.1,30.1a14,14,0,0,0,19.8,0l51.6-51.6,19,19-47.6,47.6a14.016,14.016,0,0,0,0,19.8l47.6,47.6-70.6,70.6A13.909,13.909,0,0,1,682,649.2ZM657,251l15.1,15.1a14,14,0,0,0,19.8,0L707,251h0l-15.1-15.1a14,14,0,0,0-19.8,0Zm524,332.2a13.908,13.908,0,0,1-9.9-4.1L1062.5,470.5l46.6-46.6a14,14,0,0,0,0-19.8l-9.6-9.6L1112,382l-31-31,28.1-28.1a14,14,0,0,0,0-19.8L1081,275l18.5-18.5h0L1076,233l33.1-33.1a14,14,0,0,0,0-19.8L1093,164l16.1-16.1a14,14,0,0,0,0-19.8L1050,69l59.1-59.1a14,14,0,0,1,19.8,0L1188,69l59.1-59.1a14,14,0,0,1,19.8,0L1326,69l-59.1,59.1a14,14,0,0,0,0,19.8L1283,164l-16.1,16.1a14,14,0,0,0,0,19.8L1300,233l-30.5,30.5h0L1288,282l-21.1,21.1a14,14,0,0,0,0,19.8L1288,344l-38,38h0l19.5,19.5,38-38,0,0h0L1288,344l21.1-21.1a14.016,14.016,0,0,0,0-19.8L1288,282l30.5-30.5L1369,302l-61.5,61.5,77.6,77.6a14,14,0,0,0,19.8,0l77.6-77.6h0l40.6,40.6a14,14,0,0,1,0,19.8L1404.9,542.1a14,14,0,0,1-19.8,0l-78.6-78.6L1190.9,579.1A13.907,13.907,0,0,1,1181,583.2Zm88.5-181.7-2.6,2.6a14,14,0,0,0,0,19.8l39.6,39.6,2.6-2.6a14,14,0,0,0,0-19.8l-39.6-39.6ZM1112,382l59.1,59.1a14,14,0,0,0,19.8,0L1250,382h0l-59.1-59.1a14,14,0,0,0-19.8,0Zm76-175,59.1,59.1a14,14,0,0,0,19.8,0l2.6-2.6h0l-69-69L1188,207h0Zm-88.5,49.5,9.6,9.6a14,14,0,0,0,19.8,0L1188,207h0l-19.5-19.5,2.6-2.6a14,14,0,0,1,19.8,0l9.6,9.6,46.6-46.6a14,14,0,0,0,0-19.8L1188,69l-59.1,59.1a14,14,0,0,0,0,19.8l39.6,39.6ZM342,583.2a13.906,13.906,0,0,1-9.9-4.1L225.5,472.5l40.6-40.6a14.016,14.016,0,0,0,0-19.8l-11.6-11.6L273,382l-33-33,26.1-26.1a14,14,0,0,0,0-19.8L240,277l18.5-18.5,0,0h0L233,233l33.1-33.1a14,14,0,0,0,0-19.8L250,164l16.1-16.1a14,14,0,0,0,0-19.8L207,69,266.1,9.9a14,14,0,0,1,19.8,0L341,65l-63.1,63.1a14.016,14.016,0,0,0,0,19.8l45.6,45.6-65,65,7.6,7.6a14,14,0,0,0,19.8,0L341,211h0l-17.5-17.5,8.6-8.6a14,14,0,0,1,19.8,0l7.6,7.6L341,211l55.1,55.1a14,14,0,0,0,19.8,0l8.6-8.6-65-65,44.6-44.6a14.017,14.017,0,0,0,0-19.8L341,65,396.1,9.9a14,14,0,0,1,19.8,0L475,69l-59.1,59.1a14.016,14.016,0,0,0,0,19.8L432,164l-16.1,16.1a14,14,0,0,0,0,19.8L449,233l-24.5,24.5h0L443,276l-27.1,27.1a14,14,0,0,0,0,19.8L443,350l-32,32,17.5,17.5-12.6,12.6a14.016,14.016,0,0,0,0,19.8l41.6,41.6L351.9,579.1A13.905,13.905,0,0,1,342,583.2ZM273,382l59.1,59.1a14,14,0,0,0,19.8,0L411,382h0l-59.1-59.1a14,14,0,0,0-19.8,0ZM544,554.2a13.909,13.909,0,0,1-9.9-4.1l-76.6-76.6,12.6-12.6a14,14,0,0,0,0-19.8l-41.6-41.6,32-32,0,0h0L443,350l27.1-27.1a14,14,0,0,0,0-19.8L443,276l24.5-24.5L522,306l-61.5,61.5,73.6,73.6a14,14,0,0,0,19.8,0l33.6-33.6h0l-33.6-33.6a14,14,0,0,1,0-19.8L584,324l0,0h0l-18-18,54.5-54.5,18,18L584,324l43.5,43.5-40,40,33,33-66.6,66.6a14.016,14.016,0,0,0,0,19.8l11.6,11.6-11.6,11.6A13.909,13.909,0,0,1,544,554.2Zm-406,0a13.908,13.908,0,0,1-9.9-4.1L9.9,431.9a14,14,0,0,1,0-19.8l44.6-44.6h0l73.6,73.6a14,14,0,0,0,19.8,0l73.6-73.6L160,306l54.5-54.5L240,277l-26.1,26.1a14,14,0,0,0,0,19.8L240,349l-18.5,18.5h0l33,33-40.6,40.6a14,14,0,0,0,0,19.8l11.6,11.6-77.6,77.6A13.908,13.908,0,0,1,138,554.2Zm843-8a13.909,13.909,0,0,1-9.9-4.1l-7.6-7.6,7.6-7.6a14.016,14.016,0,0,0,0-19.8l-66.6-66.6,33-33h0l-44-44L937,320l-50.5-50.5,18-18L955,302l-18,18h0l34.1,34.1a14,14,0,0,1,0,19.8l-33.6,33.6,33.6,33.6a14,14,0,0,0,19.8,0l77.6-77.6L1007,302l50.5-50.5L1081,275l-28.1,28.1a14,14,0,0,0,0,19.8L1081,351l-12.5,12.5h0l31,31-46.6,46.6a14,14,0,0,0,0,19.8l9.6,9.6-71.6,71.6A13.907,13.907,0,0,1,981,546.2ZM54.5,367.5h0L9.9,322.9a14,14,0,0,1,0-19.8l51.6-51.6L9.9,199.9a14,14,0,0,1,0-19.8L26,164l0,0h0L9.9,147.9a14,14,0,0,1,0-19.8L128.1,9.9a14,14,0,0,1,19.8,0L207,69,181,95l69,69-43,43,26,26-18.5,18.5h0l-26-26L207,207h0l-59.1-59.1a14,14,0,0,1,0-19.8L181,95,147.9,61.9a14,14,0,0,0-19.8,0L26,164l61.5,61.5-26,26h0L116,306,54.5,367.5Zm1428-4h0L1421,302l50.5-50.5,51.6,51.6a14,14,0,0,1,0,19.8l-40.6,40.6ZM1395,322.2a13.909,13.909,0,0,1-9.9-4.1L1369,302l16.1-16.1a14,14,0,0,1,19.8,0L1421,302l-16.1,16.1A13.906,13.906,0,0,1,1395,322.2Zm-414,0a13.909,13.909,0,0,1-9.9-4.1L955,302l16.1-16.1a14,14,0,0,1,19.8,0L1007,302l-16.1,16.1A13.906,13.906,0,0,1,981,322.2Zm-437,0a13.909,13.909,0,0,1-9.9-4.1L522,306l12.1-12.1a14,14,0,0,1,19.8,0L566,306l-12.1,12.1A13.909,13.909,0,0,1,544,322.2Zm-406,0a13.908,13.908,0,0,1-9.9-4.1L116,306l12.1-12.1a14,14,0,0,1,19.8,0L160,306l-12.1,12.1A13.909,13.909,0,0,1,138,322.2Zm1257-52a13.909,13.909,0,0,1-9.9-4.1l-40.6-40.6,40.6-40.6a14,14,0,0,1,19.8,0l40.6,40.6-40.6,40.6A13.906,13.906,0,0,1,1395,270.2Zm-414,0a13.909,13.909,0,0,1-9.9-4.1l-40.6-40.6,40.6-40.6a14,14,0,0,1,19.8,0l40.6,40.6-40.6,40.6A13.906,13.906,0,0,1,981,270.2Zm-437,0a13.909,13.909,0,0,1-9.9-4.1l-40.6-40.6,40.6-40.6a14,14,0,0,1,19.8,0l40.6,40.6-40.6,40.6A13.909,13.909,0,0,1,544,270.2Zm-406,0a13.908,13.908,0,0,1-9.9-4.1L87.5,225.5l40.6-40.6a14,14,0,0,1,19.8,0l40.6,40.6-40.6,40.6A13.909,13.909,0,0,1,138,270.2Zm1333.5-18.7,0,0h0l-26-26L1507,164,1404.9,61.9a14,14,0,0,0-19.8,0L1352,95l33.1,33.1a14,14,0,0,1,0,19.8L1326,207l18.5,18.5-26,26h0L1300,233l26-26h0l-43-43,69-69-26-26,59.1-59.1a14,14,0,0,1,19.8,0l118.2,118.2a14,14,0,0,1,0,19.8L1507,164h0l16.1,16.1a14,14,0,0,1,0,19.8Zm-414,0h0l-26-26L1050,207h0l-59.1-59.1a14,14,0,0,1,0-19.8L1024,95l69,69-43,43,26,26-18.5,18.5Zm-153,0h0L886,233l26-26h0l-43-43,69-69h0L912,69,971.1,9.9a14,14,0,0,1,19.8,0L1050,69l-26,26L990.9,61.9a14,14,0,0,0-19.8,0L938,95l33.1,33.1a14,14,0,0,1,0,19.8L912,207l18.5,18.5-26,26Zm-284,0h0l-26-26L613,207h0l-59.1-59.1a14,14,0,0,1,0-19.8L587,95l69,69-43,43,26,26-18.5,18.5Zm-153,0h0L449,233l26-26h0l-43-43,69-69h0L475,69,534.1,9.9a14,14,0,0,1,19.8,0L613,69,587,95,553.9,61.9a14,14,0,0,0-19.8,0L501,95l33.1,33.1a14,14,0,0,1,0,19.8L475,207l18.5,18.5-26,26Z" transform="translate(-145 -84)" fill="#fb6b54" opacity="0.54"/>
  </g>
</svg>
