<svg xmlns="http://www.w3.org/2000/svg" width="445.056" height="121.06" viewBox="0 0 445.056 121.06">
  <defs>
    <style>
      .cls-1 {
        fill: #040506;
      }

      .cls-2 {
        fill: #050506;
      }

      .cls-3 {
        fill: #5aa74e;
      }

      .cls-4 {
        fill: #da4826;
      }
    </style>
  </defs>
  <g id="logo" transform="translate(-173.668 -157.065)">
    <g id="Group_3" data-name="Group 3">
      <g id="Group_1" data-name="Group 1" transform="translate(313.431 180.125)">
        <path id="Path_7" data-name="Path 7" class="cls-1" d="M359.6,191.979c.277,2.172-2.171,3.692-3.553,3.747a3.879,3.879,0,0,1-3.631-3.639c.026-2.3,1.49-3.7,3.922-3.675A3.377,3.377,0,0,1,359.6,191.979Z" transform="translate(-316.471 -180.763)"/>
        <path id="Path_8" data-name="Path 8" class="cls-1" d="M423.527,192c.327,2.1-2,3.673-3.459,3.741a3.8,3.8,0,0,1-3.725-3.783c.218-1.99,1.081-3.546,3.8-3.523A3.368,3.368,0,0,1,423.527,192Z" transform="translate(-321.392 -180.764)"/>
        <path id="Path_9" data-name="Path 9" class="cls-1" d="M347.043,195.6c-2.431-.282-3.487-1.36-3.642-3.7a3.589,3.589,0,0,1,3.653-3.645,3.8,3.8,0,0,1,3.676,3.783A3.855,3.855,0,0,1,347.043,195.6Z" transform="translate(-315.777 -180.75)"/>
        <path id="Path_10" data-name="Path 10" class="cls-1" d="M432.682,192.021a3.791,3.791,0,0,1-3.828,3.558,3.584,3.584,0,0,1-.033-7.164A3.714,3.714,0,0,1,432.682,192.021Z" transform="translate(-322.088 -180.763)"/>
        <path id="Path_11" data-name="Path 11" class="cls-1" d="M528.874,192.013a3.243,3.243,0,0,1,3.093-3.612,3.688,3.688,0,0,1,4,3.657c.111,1.819-2.134,3.713-3.822,3.706A3.689,3.689,0,0,1,528.874,192.013Z" transform="translate(-330.056 -180.762)"/>
        <path id="Path_12" data-name="Path 12" class="cls-1" d="M523.255,188.568a3.257,3.257,0,0,1,3.629,3.491,3.574,3.574,0,1,1-7.145-.036C519.832,189.8,521.008,188.57,523.255,188.568Z" transform="translate(-329.354 -180.773)"/>
        <path id="Path_13" data-name="Path 13" class="cls-1" d="M456.967,202.116q0-6.612,0-13.224c0-1.3.042-1.337,1.332-1.333,2.836.01,5.672.018,8.507.007.592,0,1.156-.053,1.142.788-.012.8-.4,1.142-1.215,1.077a1.993,1.993,0,0,0-1.575.236,2.813,2.813,0,0,0-1.071,2.243c-.06,7.643-.057,15.288-.079,22.932a11.726,11.726,0,0,1-3.824,9.045,9.892,9.892,0,0,1-6.295,2.775c-3.2.19-6.388.15-9.575.086a8.25,8.25,0,0,1-5.181-2.424c-.525-.459-.926-1.349-1.526-1.331-.4.013-.918.827-1.418,1.25a9.39,9.39,0,0,1-6.077,2.37,15.479,15.479,0,0,1-3.427-.013,9.365,9.365,0,0,1-5.666-3.018c-.512-.61-.772-.9-1.451-.076a8.993,8.993,0,0,1-4.193,2.635,10.855,10.855,0,0,1-5.137.349,8.743,8.743,0,0,1-5.289-2.7c-.535-.58-.855-.727-1.512-.065a13.475,13.475,0,0,1-3.627,2.418,8.646,8.646,0,0,1-3.785.586c-3.814.172-7.641.056-11.463.013-.541-.006-.641.186-.6.634a8.479,8.479,0,0,1-1.341,5.038,11.577,11.577,0,0,1-3.312,3.6,27.43,27.43,0,0,1-3.651,1.92c-.915.468-1.973.477-2.8,1.1-.277.21-.59.107-.888.138a.787.787,0,0,1-.942-.511c-.131-.45.174-.719.555-.932a9.2,9.2,0,0,0,3.271-3.065,14.965,14.965,0,0,0,1.613-3.84c.823-2.71.48-5.411.506-8.106.07-7.181,0-14.364-.018-21.547,0-1.275,0-1.283,1.249-1.289q4.346-.018,8.693-.024a2.352,2.352,0,0,1,.369-.006c.474.077.9.19.866.83-.036.6-.366.789-.912.788a3.824,3.824,0,0,0-1.372.09c-1.212.442-1.67,1.278-1.673,3.129q-.015,8.739-.027,17.478c0,1.916,0,1.916,1.91,1.912,2.188,0,4.378.039,6.565-.022a7.481,7.481,0,0,0,5.465-2.286,8.454,8.454,0,0,0,2.017-4.138c1.018-4.821.27-9.691.479-14.533.053-1.214.006-1.2,1.221-1.192,2.867.017,5.734.01,8.6.032.461,0,1.116-.29,1.124.629.007.883-.516,1-1.194.894a2.054,2.054,0,0,0-2.509,1.324,1.738,1.738,0,0,0-.193.681q0,7.212-.019,14.425c-.008,2.043,2.243,3.879,3.843,4.145a4.551,4.551,0,0,0,4.969-3.153,8.525,8.525,0,0,0,.514-3.087q-.007-7.953-.031-15.905c0-.582.062-.927.772-.922,3.113.021,6.227,0,9.34,0,.476,0,.9.1.857.678a.666.666,0,0,1-.856.686c-.361-.052-.742.039-1.107,0a1.292,1.292,0,0,0-1.337.788,4.88,4.88,0,0,0-.607,2.073c0,4.809-.04,9.618.019,14.426a4.549,4.549,0,0,0,3.258,4.052,5.184,5.184,0,0,0,5.973-2.987,4,4,0,0,0,.137-1.555q-.012-8.925-.033-17.848c0-1.38-.006-1.382,1.367-1.385q4.208-.008,8.415-.008a2.978,2.978,0,0,1,.816.092c.379.111.346.454.342.764a.466.466,0,0,1-.521.507,7.269,7.269,0,0,0-1.2.035c-1.435.281-2.028,1.273-2.04,3.389-.018,3.237-.048,6.474-.019,9.71a11.76,11.76,0,0,0,1.388,5.929,7.042,7.042,0,0,0,4.7,3.39,8.333,8.333,0,0,0,6.351-.737,7,7,0,0,0,2.9-3.37c.537-1.127.417-2.41,1.124-3.445.1-.151.041-.421.042-.635q0-6.705,0-13.41Z" transform="translate(-317.903 -180.697)"/>
        <path id="Path_14" data-name="Path 14" class="cls-1" d="M343.832,235.767c-5.981,0-11.962.046-17.942-.023a12.452,12.452,0,0,1-6.631-2.169,13.014,13.014,0,0,1-4.583-5.027,8.829,8.829,0,0,1-1.2-4.185c.051-5.364.031-10.729.006-16.093,0-.661.114-.887.842-.875,3.021.053,6.042.032,9.064.027.558,0,1.1,0,1.134.74.028.711-.4.894-1.059.914-.838.024-1.876-.234-2.343.731a5.911,5.911,0,0,0-.543,2.511c-.029,3.514-.164,7.037.036,10.541.138,2.429.4,4.936,1.944,7.026a6.834,6.834,0,0,0,5.621,3.1c9,.032,18,.029,27.006.05.59,0,.889-.093.844-.816-.077-1.2-.038-2.4,0-3.6.018-.6-.2-.829-.794-.821-1.539.024-3.077,0-4.616.018a23.72,23.72,0,0,1-5.06-.672,16.385,16.385,0,0,1-6.639-2.973,13.084,13.084,0,0,1-4.835-6.658,9.736,9.736,0,0,1-.542-3.588,11.94,11.94,0,0,1,2.094-6.312,13.794,13.794,0,0,1,3.4-3.383,19.015,19.015,0,0,1,4.733-2.2,39.3,39.3,0,0,1,4-.927,15.529,15.529,0,0,1,3.124-.225c4.9-.026,9.8-.018,14.705-.023a4.44,4.44,0,0,1,.555.006c.488.062,1.031.084.989.8-.04.673-.546.672-1.015.626a2.377,2.377,0,0,0-2.749,1.431,4.906,4.906,0,0,0-.216,1.906q-.007,14.335.019,28.672c0,1.3-.114,1.439-1.4,1.44q-8.972,0-17.942,0Zm12.2-20.907h-.017c0-3.236-.012-6.473.015-9.709,0-.418-.112-.63-.485-.75a6.6,6.6,0,0,0-1.222-.4c-3.9-.422-7.533.21-10.589,2.859a8.392,8.392,0,0,0-2.465,3.8,11.788,11.788,0,0,0-.161,6.636,9.4,9.4,0,0,0,5.237,6.568c2.878,1.359,6.022,1.365,9.145,1.247.415-.016.558-.174.555-.629C356.021,221.271,356.034,218.065,356.034,214.86Z" transform="translate(-313.474 -181.72)"/>
        <path id="Path_15" data-name="Path 15" class="cls-1" d="M609.443,200.829q3.885,0,7.769,0a4.371,4.371,0,0,1,.738.028.644.644,0,0,1,.6.767c-.031.473-.269.624-.705.662-.772.067-1.553-.208-2.289.484a3.06,3.06,0,0,0-.9,1.413,4.3,4.3,0,0,0-.076,1.193c-.017,6.321-.017,12.641-.061,18.961,0,.655.211.785.785.776,1.6-.026,3.208.03,4.809-.026a7.15,7.15,0,0,0,5.857-2.874,8.984,8.984,0,0,0,1.348-3.2c1.3-5.665.285-11.373.526-17.051.018-.448.119-.616.495-.665a8.644,8.644,0,0,1,1.1-.078c2.836-.014,5.674.011,8.509-.048.75-.016.74.322.773.876.041.666-.238.808-.808.711a3.2,3.2,0,0,0-.462-.009c-1.9-.034-2.169.676-2.335,2.273a84.912,84.912,0,0,0-.145,10.248,11.473,11.473,0,0,1-1.364,5.761,13.334,13.334,0,0,1-5.539,5.572,11.69,11.69,0,0,1-5.25,1.208c-2.525.077-5.055.007-7.583,0-1.032,0-1.092.117-1.036,1.178a10.305,10.305,0,0,1-3.223,8.2,17.3,17.3,0,0,1-8.666,3.948c-.331.054-.806.158-.908-.366-.091-.467.156-.723.581-1a9.817,9.817,0,0,0,3.973-4.447,19.185,19.185,0,0,0,1.457-6.707c.025-.591-.171-.859-.777-.82a75.26,75.26,0,0,1-8.02-.251,14.429,14.429,0,0,1-4.12-1.139,15.225,15.225,0,0,1-6.5-4.289,11.959,11.959,0,0,1,.125-15.874,15.835,15.835,0,0,1,6.992-4.2,27.858,27.858,0,0,1,9.792-1.226c1.51.03,3.021,0,4.532,0Zm-2.03,14.012h-.007c0-3.2-.011-6.4.013-9.6,0-.434-.08-.689-.5-.837a4.936,4.936,0,0,0-1.4-.426c-2.737-.118-5.448-.169-8.025,1.061a8.867,8.867,0,0,0-4.815,5.346,12.993,12.993,0,0,0-.207,7.071,9.971,9.971,0,0,0,8.373,7.665,41.618,41.618,0,0,0,5.809.162c.569.016.792-.21.785-.833C607.4,221.245,607.413,218.043,607.413,214.841Z" transform="translate(-334.382 -181.718)"/>
        <path id="Path_16" data-name="Path 16" class="cls-1" d="M537.594,227.822q-6.1,0-12.194,0a11.215,11.215,0,0,1-3.47-.8,16.176,16.176,0,0,1-6.821-4.282,13.82,13.82,0,0,1-2.919-4.759,12.471,12.471,0,0,1-.4-5.219c.157-3.126,1.778-5.5,4.16-7.478a21.9,21.9,0,0,1,3.123-2.053,16.592,16.592,0,0,1,3.1-1.1c1.863-.623,3.851-.571,5.74-1.059a2.658,2.658,0,0,1,.643-.033q7.583-.018,15.166-.041c.611,0,1.193.047,1.162.814-.027.677-.524.884-1.168.845-1.736-.105-2.542.667-2.476,2.144.024.521-.054,1.045-.056,1.567-.012,6.041-.014,12.083-.04,18.125,0,.392.09.619.474.606,2.567-.089,5.18.376,7.683-.515a6.458,6.458,0,0,0,4.118-4.055,21.364,21.364,0,0,0,1.2-7.969c-.052-3.421,0-6.843-.035-10.265-.008-.8.238-1.058,1.068-1.04,2.927.062,5.857.033,8.785.054.466,0,1.112-.126,1.072.641-.034.639-.44.938-1.129.891-.936-.066-1.907-.182-2.457.9a2.794,2.794,0,0,0-.279,1.318q.006,4.484,0,8.97a14.393,14.393,0,0,1-1.779,7.487,12.981,12.981,0,0,1-5.216,5.091,11.514,11.514,0,0,1-5.487,1.226q-5.78.01-11.56,0Zm-3.675-12.95H533.9q0-4.76,0-9.521c0-.3.118-.712-.3-.767-1.488-.2-2.944-.813-4.463-.569a15.884,15.884,0,0,0-5.5,1.609,9.14,9.14,0,0,0-4.819,7.163,12.583,12.583,0,0,0,1.1,7.263c1.335,2.667,3.26,4.538,6.261,4.94a60.625,60.625,0,0,0,7.2.111c.4.006.562-.144.558-.618C533.9,221.28,533.919,218.076,533.919,214.872Z" transform="translate(-328.735 -181.732)"/>
        <path id="Path_17" data-name="Path 17" class="cls-1" d="M573.816,207.257q0-9.063,0-18.124c0-1.5.082-1.585,1.536-1.582,2.682,0,5.364,0,8.046,0a4.648,4.648,0,0,1,.826.043.75.75,0,0,1,.677.761.659.659,0,0,1-.722.684,6.953,6.953,0,0,0-1.823.507,1.7,1.7,0,0,0-1.269,1.547,6.057,6.057,0,0,0-.041,1.108q-.011,16.645-.016,33.29c0,1.253-.058,1.323-1.285,1.325q-2.358.006-4.716,0c-1.061,0-1.2-.153-1.2-1.249q0-9.154,0-18.309Z" transform="translate(-333.517 -180.697)"/>
        <path id="Path_18" data-name="Path 18" class="cls-1" d="M480.017,207.243q0-9.2,0-18.393c0-1.257.026-1.274,1.3-1.27,2.711.007,5.423,0,8.134.011a7.866,7.866,0,0,1,.92.054.6.6,0,0,1,.564.624.722.722,0,0,1-.439.779,1.84,1.84,0,0,1-.693.167c-2,.03-2.425.65-2.7,2.868a36.183,36.183,0,0,0-.032,4.34q0,14.557,0,29.115c0,1.281,0,1.28-1.286,1.279-1.572,0-3.146-.052-4.714.018-.885.041-1.071-.288-1.066-1.108C480.032,219.567,480.018,213.4,480.017,207.243Z" transform="translate(-326.294 -180.699)"/>
        <path id="Path_19" data-name="Path 19" class="cls-1" d="M634.932,242.115c-1.7,0-3.529-1.314-3.554-2.553-.059-3.01,1.158-4.489,3.69-4.483,2.039.006,3.482,1.616,3.476,3.882C638.541,241.024,637.289,242.117,634.932,242.115Z" transform="translate(-337.949 -184.356)"/>
        <path id="Path_20" data-name="Path 20" class="cls-1" d="M424.469,187.182c-2.015,0-3.693-1.364-3.7-3.011a3.78,3.78,0,0,1,3.778-4.046,3.609,3.609,0,0,1,3.517,3.585A3.409,3.409,0,0,1,424.469,187.182Z" transform="translate(-321.734 -180.125)"/>
        <path id="Path_21" data-name="Path 21" class="cls-1" d="M561.482,242.114c-2.26,0-3.322-1.1-3.318-3.426s1.22-3.548,3.462-3.618a3.829,3.829,0,0,1,3.621,3.7C565.163,240.836,563.8,242.116,561.482,242.114Z" transform="translate(-332.312 -184.355)"/>
      </g>
      <g id="Group_2" data-name="Group 2" transform="translate(312.923 249.074)">
        <path id="Path_22" data-name="Path 22" class="cls-1" d="M333.2,270.853c0,3.756-2.611,6.557-8.785,6.557H314.39c-.988,0-1.432-.287-1.464-.954-.032-.573.191-.988,1.018-2.133.572-.8.605-1.846.605-4.074v-7.957c0-2.2-.033-3.247-.605-4.074-.827-1.146-1.05-1.528-1.018-2.1.031-.668.476-.987,1.464-.987h8.4c4.87,0,8.434,1.942,8.434,5.7a4.662,4.662,0,0,1-3.883,4.934C330.941,265.888,333.2,268.275,333.2,270.853ZM320.6,262.577c0,1.242.382,1.815,1.369,1.815h.446c1.686,0,2.642-1.432,2.642-3.119,0-1.719-.955-3.151-2.642-3.151h-.446c-.987,0-1.369.605-1.369,1.814Zm6.016,8.277a3.416,3.416,0,0,0-3.661-3.565h-.541c-1.465,0-1.815.286-1.815,1.846v3.4c0,1.592.35,1.879,1.815,1.879h.541A3.417,3.417,0,0,0,326.612,270.853Z" transform="translate(-312.923 -254.848)"/>
        <path id="Path_23" data-name="Path 23" class="cls-1" d="M358.832,276.456c-.064.636-.509.954-1.5.954H350.27c-.988,0-1.592-.318-1.687-.954-.255-1.815,1.91-1.847.987-5.444l-.159-.445h-8.021c-1.592,4.233.7,4.169.35,5.889-.159.636-.51.954-1.5.954h-3.66c-.988,0-1.687-.318-1.687-.954,0-1.815,1.75-1.337,3.533-6.207,1.368-3.6,2.991-7.863,3.787-9.867.987-2.484-.732-2.834-.636-4.266.063-.668.509-.987,1.5-.987h4.647a2.117,2.117,0,0,1,2.387,1.656c.255.6,3.279,8.371,5.284,13.464C357.4,275.246,358.991,274.737,358.832,276.456Zm-10.6-8.914-2.8-7.32-2.865,7.32Z" transform="translate(-314.614 -254.848)"/>
        <path id="Path_24" data-name="Path 24" class="cls-1" d="M391.037,256.116c0,1.782-1.59,1.178-3.055,6.176,0,0-3.342,11.331-3.6,12.127-.668,2.1-1.177,2.991-3.533,2.991-2.132,0-3.183-.478-3.788-2.991-.254-1.114-1.814-6.844-2.577-10.09-1.05,3.6-2.8,9.421-3.087,10.376-.6,2.1-1.242,2.706-3.6,2.706-2.1,0-2.991-.414-3.787-2.865-.318-.923-2.419-7.67-3.852-12.318-1.624-5.125-3.214-4.424-3.056-6.112.065-.668.478-.987,1.465-.987h7.511c.987,0,1.624.318,1.687.987.287,1.911-2.642,1.815-1.4,6.176l2.61,9.071s3.6-12.414,4.01-13.783c.382-1.337.8-2.451,1.942-2.451h2.228c1.145,0,1.369,1.145,1.655,2.26.255,1.114,3.693,13.974,3.693,13.974l2.642-9.071c1.369-4.775-1.337-4.425-.955-6.176.127-.668.51-.987,1.465-.987h3.692C390.337,255.129,391.037,255.447,391.037,256.116Z" transform="translate(-316.324 -254.848)"/>
        <path id="Path_25" data-name="Path 25" class="cls-1" d="M414.706,276.456c-.064.636-.51.954-1.5.954h-7.066c-.988,0-1.592-.318-1.687-.954-.255-1.815,1.91-1.847.987-5.444l-.16-.445h-8.02c-1.592,4.233.7,4.169.35,5.889-.159.636-.509.954-1.5.954h-3.659c-.988,0-1.687-.318-1.687-.954,0-1.815,1.75-1.337,3.533-6.207,1.368-3.6,2.991-7.863,3.787-9.867.988-2.484-.732-2.834-.636-4.266.063-.668.509-.987,1.5-.987H403.6a2.117,2.117,0,0,1,2.387,1.656c.255.6,3.279,8.371,5.284,13.464C413.273,275.246,414.865,274.737,414.706,276.456Zm-10.6-8.914-2.8-7.32-2.865,7.32Z" transform="translate(-318.916 -254.848)"/>
        <path id="Path_26" data-name="Path 26" class="cls-1" d="M438.085,270.853c0,3.756-2.61,6.557-8.785,6.557H419.274c-.988,0-1.432-.287-1.464-.954-.033-.573.191-.988,1.018-2.133.572-.8.6-1.846.6-4.074v-7.957c0-2.2-.032-3.247-.6-4.074-.827-1.146-1.051-1.528-1.018-2.1.031-.668.476-.987,1.464-.987h8.4c4.869,0,8.434,1.942,8.434,5.7a4.663,4.663,0,0,1-3.883,4.934C435.825,265.888,438.085,268.275,438.085,270.853Zm-12.6-8.277c0,1.242.382,1.815,1.369,1.815h.446c1.686,0,2.642-1.432,2.642-3.119,0-1.719-.955-3.151-2.642-3.151h-.446c-.987,0-1.369.605-1.369,1.814Zm6.016,8.277a3.417,3.417,0,0,0-3.661-3.565h-.541c-1.465,0-1.815.286-1.815,1.846v3.4c0,1.592.35,1.879,1.815,1.879h.541A3.418,3.418,0,0,0,431.5,270.853Z" transform="translate(-320.998 -254.848)"/>
        <path id="Path_27" data-name="Path 27" class="cls-1" d="M460.145,263.024c-1.464,0-2.2-1.561-2.8-2.738a3.8,3.8,0,0,0-3.6-2.132v12.1c0,2.228.031,3.279.636,4.074.828,1.145,1.05,1.56,1.019,2.133-.065.636-.51.954-1.5.954h-6.335c-.986,0-1.432-.318-1.464-.954-.064-.573.191-.988,1.019-2.133.573-.8.6-1.846.6-4.074v-12.1a3.711,3.711,0,0,0-3.565,2.132c-.637,1.177-1.337,2.738-2.8,2.738a1.2,1.2,0,0,1-1.21-1.561c.256-1.368.573-3.151.8-4.488.222-1.368.8-1.846,2.132-1.846h15.342c1.337,0,1.91.478,2.1,1.846.223,1.337.573,3.12.8,4.488C461.483,262.45,460.973,263.024,460.145,263.024Z" transform="translate(-322.716 -254.848)"/>
        <path id="Path_28" data-name="Path 28" class="cls-1" d="M495,276.456c-.064.636-.509.954-1.5.954h-7.066c-.988,0-1.592-.318-1.687-.954-.255-1.815,1.91-1.847.987-5.444l-.16-.445h-8.02c-1.592,4.233.7,4.169.35,5.889-.159.636-.509.954-1.5.954h-3.66c-.988,0-1.687-.318-1.687-.954,0-1.815,1.75-1.337,3.533-6.207,1.368-3.6,2.991-7.863,3.787-9.867.988-2.484-.732-2.834-.636-4.266.063-.668.509-.987,1.5-.987h4.647a2.117,2.117,0,0,1,2.387,1.656c.255.6,3.279,8.371,5.284,13.464C493.564,275.246,495.156,274.737,495,276.456Zm-10.6-8.914-2.8-7.32-2.865,7.32Z" transform="translate(-325.098 -254.848)"/>
        <path id="Path_29" data-name="Path 29" class="cls-1" d="M516.625,271.077c-.223,1.4-.573,3.151-.8,4.519s-.8,1.815-2.1,1.815H499.564c-.988,0-1.433-.287-1.464-.954-.065-.573.191-.988,1.018-2.133.572-.8.6-1.846.6-4.074v-7.957c0-2.2-.032-3.247-.6-4.074-.827-1.146-1.083-1.528-1.018-2.1.031-.668.476-.987,1.464-.987H505.9c.987,0,1.432.318,1.5.987.031.574-.191.955-1.019,2.1-.573.827-.6,1.877-.6,4.074v7.957c0,3.6.669,4.17,2.865,4.17h.382a3.7,3.7,0,0,0,3.6-2.165c.637-1.177,1.337-2.705,2.834-2.705C516.243,269.548,516.784,270.089,516.625,271.077Z" transform="translate(-327.179 -254.848)"/>
        <path id="Path_30" data-name="Path 30" class="cls-1" d="M538.342,271.88c-.574,4.424-4.139,5.793-9.136,5.793-7.67,0-11.587-5-9.294-7.352,1.082-1.114,3.533-1.306,4.456.54.763,1.529,1.336,3.692,4.742,3.915,1.241.1,2.642-.127,2.9-1.56.222-1.241-.828-2.323-2.1-2.991-3.056-1.56-10.217-3.883-9.517-9.613.572-4.9,4.52-5.983,9.071-5.761,7.289.381,9.836,5.125,7.48,7.129a2.9,2.9,0,0,1-4.265-.573c-.954-1.368-.828-3.627-3.788-3.692-1.687,0-2.769.859-2.578,2.387.191,1.465,1.56,2.451,4.838,3.948C536.4,266.437,538.851,268.092,538.342,271.88Z" transform="translate(-328.808 -254.825)"/>
        <path id="Path_31" data-name="Path 31" class="cls-1" d="M563.856,274.323c.828,1.145,1.083,1.56,1.051,2.133-.064.667-.509.954-1.5.954h-6.334c-.988,0-1.433-.287-1.5-.954-.031-.573.223-.988,1.05-2.133.573-.8.6-1.846.6-4.074v-2.706h-7.766v2.706c0,2.228.032,3.279.606,4.074.827,1.145,1.082,1.56,1.049,2.133-.063.667-.509.954-1.5.954h-6.335c-.986,0-1.432-.287-1.5-.954-.032-.573.222-.988,1.05-2.133.573-.8.6-1.846.6-4.074v-7.957c0-2.2-.031-3.247-.6-4.074-.828-1.146-1.083-1.528-1.05-2.1.063-.668.51-.987,1.5-.987h6.335c.987,0,1.433.318,1.5.987.032.574-.222.955-1.049,2.1-.573.827-.606,1.877-.606,4.074v2.26h7.766v-2.26c0-2.2-.031-3.247-.6-4.074-.827-1.146-1.082-1.528-1.05-2.1.065-.668.509-.987,1.5-.987h6.334c.987,0,1.432.318,1.5.987.031.574-.223.955-1.051,2.1-.572.827-.6,1.877-.6,4.074v7.957C563.251,272.477,563.284,273.527,563.856,274.323Z" transform="translate(-330.543 -254.848)"/>
        <path id="Path_32" data-name="Path 32" class="cls-1" d="M591.844,276.456c-.065.636-.509.954-1.5.954h-7.067c-.987,0-1.591-.318-1.687-.954-.254-1.815,1.911-1.847.988-5.444l-.16-.445H574.4c-1.591,4.233.7,4.169.35,5.889-.159.636-.509.954-1.5.954H569.6c-.987,0-1.687-.318-1.687-.954,0-1.815,1.751-1.337,3.533-6.207,1.369-3.6,2.992-7.863,3.788-9.867.987-2.484-.732-2.834-.637-4.266.064-.668.51-.987,1.5-.987h4.647a2.118,2.118,0,0,1,2.387,1.656c.255.6,3.279,8.371,5.283,13.464C590.412,275.246,592,274.737,591.844,276.456Zm-10.6-8.914-2.8-7.32-2.864,7.32Z" transform="translate(-332.554 -254.848)"/>
        <path id="Path_33" data-name="Path 33" class="cls-1" d="M617.292,276.456c-.064.636-.477.954-1.464.954h-7.067c-.986,0-1.624-.318-1.686-.954-.287-1.942,1.973-1.4-.892-6.207l-.669-1.114h-2.9v1.114c0,2.228.031,3.279.6,4.074.828,1.145,1.083,1.56,1.019,2.133-.032.636-.478.954-1.464.954h-6.336c-.986,0-1.432-.318-1.5-.954-.032-.573.191-.988,1.019-2.133.572-.8.636-1.846.636-4.074v-7.957c0-2.2-.064-3.247-.636-4.074-.828-1.146-1.051-1.528-1.019-2.1.064-.668.51-.987,1.5-.987h9.994c6.176,0,8.564,3.279,8.564,7a6.734,6.734,0,0,1-3.438,5.761l1.4,2.356C615.32,274.228,617.514,274.737,617.292,276.456Zm-9.1-14.324c0-2.515-1.5-3.978-3.629-3.978h-.35c-1.465,0-1.591.7-1.591,2.291v3.406c0,1.56.126,2.292,1.591,2.292h.35C606.693,266.142,608.189,264.678,608.189,262.132Z" transform="translate(-334.635 -254.848)"/>
        <path id="Path_34" data-name="Path 34" class="cls-1" d="M640.871,281.877c-.605,1.592-1.179,2.61-4.139,1.592a15.736,15.736,0,0,1-7.67-5.92c-5.825-.669-9.868-4.934-9.868-11.3,0-6.939,4.839-11.395,11.555-11.395s11.553,4.455,11.553,11.395c0,5.984-3.565,10.122-8.848,11.141a27.339,27.339,0,0,0,6.589,1.559C641.763,279.139,641.379,280.477,640.871,281.877Zm-14.9-15.628c0,5.061,1.782,8.563,4.775,8.563s4.742-3.5,4.742-8.563c0-5.03-1.751-8.53-4.742-8.53S625.974,261.219,625.974,266.249Z" transform="translate(-336.502 -254.827)"/>
      </g>
    </g>
    <g id="Group_6" data-name="Group 6">
      <g id="Group_5" data-name="Group 5" transform="translate(94 37)">
        <g id="Group_4" data-name="Group 4" transform="translate(79.668 120.065)">
          <path id="Path_35" data-name="Path 35" class="cls-2" d="M187.305,240.66s11.684-31.589,36.621-51.059c0,0,4.83-4.022,7.532,4.142,0,0,1.153,2.171,5.032,3.137,0,0,7.63-.358,5.578,7.194a59.649,59.649,0,0,1-11.713,11.74,6.478,6.478,0,0,0-2.911,3.7s-.509,1.539-3.259,3.071c0,0-20.787,11.449-30.952,22.458,0,0-8.732,4.84-5.928-4.381" transform="translate(-129.967 -152.262)"/>
          <path id="Path_36" data-name="Path 36" class="cls-2" d="M120.337,121.834a1.252,1.252,0,0,1,.11-.079c.257-.163,1.364-.935.176-1.439a4.107,4.107,0,0,0-2.782,0,23.816,23.816,0,0,1-6.368,1.262,1.117,1.117,0,0,0-.112.016,52.233,52.233,0,0,0-6.718,1.64,1.18,1.18,0,0,1-.417.113,2.719,2.719,0,0,0-1.1.367,1.179,1.179,0,0,1-.335.126c-.814.171-4.014.838-4.865.96a1.2,1.2,0,0,1-.226.011c-.456-.022-2.794.1-4.341,4.692a1.215,1.215,0,0,1-.1.213l-1.705,2.974a3.377,3.377,0,0,0-.3.737,1.192,1.192,0,0,1-.291.549l-6.942,7.463-.05.05c-.34.325-4.185,4.107-4.228,9.21a1.148,1.148,0,0,1-.013.165,6.426,6.426,0,0,0,.191,2.74,1.186,1.186,0,0,0,2.1.318l.024-.034a1.129,1.129,0,0,1,.2-.226l12.4-10.679L109.9,130.269Z" transform="translate(-79.668 -120.065)"/>
          <path id="Path_37" data-name="Path 37" class="cls-3" d="M127.248,132.179a1.2,1.2,0,0,1-.242-.2c-.468-.5-2.731-2.551-6.379.375l-22.364,16.22c-.021.015-.04.03-.059.046l-10.72,8.855c-.027.023-.054.047-.079.072l-4.328,4.283a7.861,7.861,0,0,0-2.065,6.759c0,.03.006.059.008.089a7.813,7.813,0,0,0,3.428,5.821c.021.014.042.029.062.044a67.193,67.193,0,0,1,6.939,6.017,1.221,1.221,0,0,0,.147.129c.694.513,5.6,3.973,9.166,1.858a1.119,1.119,0,0,1,.164-.081,8.207,8.207,0,0,1,2.209-.563,1.18,1.18,0,0,0,.642-.249,13.906,13.906,0,0,0,4.45-6,1.284,1.284,0,0,1,.061-.145c.445-.878,4.968-9.722,9.307-15.221,0,0,10.352-12.782,16.555-18.774a1.162,1.162,0,0,0,.092-.1,16.547,16.547,0,0,0,2.431-3.664.913.913,0,0,1,.033-.106c.111-.3.521-2.008-3.9-3.361a1.149,1.149,0,0,0-.193-.042,14.114,14.114,0,0,1-5.368-2.065" transform="translate(-80.26 -125.113)"/>
          <path id="Path_38" data-name="Path 38" class="cls-4" d="M193.448,162.979c.6-.372,6.771-4.1,8-.36q.009.026.016.053a18.82,18.82,0,0,0,3.49,6.68c.017.02.036.04.055.059.266.264,2.621,2.81-1.788,6.492,0,0-13.415,11.749-14.568,13.454a1.171,1.171,0,0,1-.127.157c-.975,1.012-10.447,11-15,21.485q-.025.056-.054.11l-3.555,6.307a1.208,1.208,0,0,0-.062.126,20.707,20.707,0,0,1-4.977,7.177,1.172,1.172,0,0,1-.371.207c-.494.165-1.567.245-2.132-1.824a1.181,1.181,0,0,1-.022-.536,2.453,2.453,0,0,1,.893-1.406,1.163,1.163,0,0,0,.177-.184c.417-.541,1.853-2.851-.4-6.725-.011-.019-.022-.038-.032-.058l-2.211-4.336a1.2,1.2,0,0,0-.2-.278,18.055,18.055,0,0,1-4.173-7.569,1.172,1.172,0,0,1-.026-.427c.124-1.029.393-5.7-4.9-5.774a1.087,1.087,0,0,1-.161-.014c-.565-.089-3.226-.692.859-3.832,0,0,23.666-20.271,41.169-28.928q.052-.025.1-.056" transform="translate(-112.679 -139.277)"/>
          <path id="Path_39" data-name="Path 39" class="cls-3" d="M223.318,262.335s4.56-2.368,4.616,1.789a1.211,1.211,0,0,0,.072.391c.376,1.032,1.946,6.06-1.885,9.1-.026.02-.051.042-.075.064a17.078,17.078,0,0,1-4.808,2.955,24.669,24.669,0,0,0-8.239,6.6,1.178,1.178,0,0,1-.084.094c-.817.828-12.849,13.137-15.419,22.595a1.186,1.186,0,0,1-.226.439c-.57.7-2.54,2.57-5.629-.159a1.219,1.219,0,0,0-.152-.114c-.406-.259-2.4-1.777-1.864-6.339a1.179,1.179,0,0,0-.063-.546,19.934,19.934,0,0,0-1.911-3.888c-.02-.032-.04-.064-.057-.1a4.057,4.057,0,0,1-.468-1.4,1.2,1.2,0,0,0-.23-.655c-.821-1.116-3.184-4.706-1.641-7.19a1.2,1.2,0,0,1,.329-.348c1.7-1.188,15.156-10.581,18.773-12.4.035-.018.069-.037.1-.058l10.886-6.913.071-.041a53.739,53.739,0,0,1,4.908-2.38.962.962,0,0,0,.11-.048Z" transform="translate(-129.024 -186.577)"/>
          <path id="Path_40" data-name="Path 40" class="cls-4" d="M230.518,296a1.194,1.194,0,0,0,.09-.129,1.439,1.439,0,0,1,2-.62c1.148.633.288,2.166.055,2.54a1.183,1.183,0,0,0-.1.2l-2.518,6.45c-.01.027-.02.055-.029.082-.157.511-1.956,6.044-7.86,11.905l-4.436,4-.046.044a7.277,7.277,0,0,1-5.09,1.7c-.036,0-.071,0-.106.005-.275.025-1.745.066.042-2.312l4.976-6.892,6.2-8.49Z" transform="translate(-141.664 -202.256)"/>
          <path id="Path_41" data-name="Path 41" class="cls-2" d="M185.208,138.274s4.151-1.933,5.962,1.085c0,0,2.6,3.147-2.752,6.834,0,0-26,17.818-38.187,31.41,0,0-3.885,5.191-4.846,2.232,0,0-.948-1.072,1.338-4.525l27.03-37.224s1.978-2.893,7.153-.422c0,0,2.183,1.6,4.3.61" transform="translate(-110.445 -127.863)"/>
        </g>
      </g>
    </g>
  </g>
</svg>
