<svg xmlns="http://www.w3.org/2000/svg" width="35.446" height="46.468" viewBox="0 0 35.446 46.468">
  <g id="Icon_ionic-ios-notifications" data-name="Icon ionic-ios-notifications" transform="translate(-0.266 7.632)">
    <path id="Path_21908" data-name="Path 21908" d="M20.309,34.609c3.681,0,5.693-2.6,5.693-6.273H14.6C14.6,32.005,16.616,34.609,20.309,34.609Z" transform="translate(-2.314 2.727)" fill="none" stroke="#000" stroke-linecap="round" stroke-linejoin="round" stroke-width="3"/>
    <path id="Path_21909" data-name="Path 21909" d="M38.716,33.908c-1.558-2.054-4.624-3.258-4.624-12.454,0-9.439-4.168-13.233-8.053-14.144-.364-.091-.627-.212-.627-.6V6.419a2.469,2.469,0,1,0-4.937,0v.293c0,.374-.263.506-.627.6-3.9.921-8.053,4.7-8.053,14.144,0,9.2-3.066,10.39-4.624,12.454a2.008,2.008,0,0,0,1.609,3.217H37.117A2.009,2.009,0,0,0,38.716,33.908Z" transform="translate(-4.954 -10.063)" fill="none" stroke="#000" stroke-width="3"/>
  </g>
</svg>
