<svg xmlns="http://www.w3.org/2000/svg" width="38" height="38" viewBox="0 0 38 38">
  <g id="Group_4898" data-name="Group 4898" transform="translate(-553 -10507)">
    <circle id="Ellipse_545" data-name="Ellipse 545" cx="19" cy="19" r="19" transform="translate(553 10507)" fill="#414141"/>
    <path id="Icon_awesome-linkedin-in" data-name="Icon awesome-linkedin-in" d="M4.65,20.774H.343V6.9H4.65ZM2.494,5.013A2.506,2.506,0,1,1,4.988,2.495,2.515,2.515,0,0,1,2.494,5.013ZM20.769,20.774h-4.3V14.022c0-1.609-.032-3.672-2.239-3.672-2.239,0-2.582,1.748-2.582,3.557v6.867h-4.3V6.9h4.131V8.8h.06a4.525,4.525,0,0,1,4.075-2.24c4.359,0,5.16,2.87,5.16,6.6v7.618Z" transform="translate(562 10515.999)" fill="#fff"/>
  </g>
</svg>
