<svg xmlns="http://www.w3.org/2000/svg" width="38" height="38" viewBox="0 0 38 38">
  <g id="Group_4897" data-name="Group 4897" transform="translate(-553 -10570)">
    <circle id="Ellipse_546" data-name="Ellipse 546" cx="19" cy="19" r="19" transform="translate(553 10570)" fill="#414141"/>
    <g id="Icon_feather-instagram" data-name="Icon feather-instagram" transform="translate(558.613 10575.613)">
      <path id="Path_24615" data-name="Path 24615" d="M8.193,3H18.58a5.193,5.193,0,0,1,5.193,5.193V18.58a5.193,5.193,0,0,1-5.193,5.193H8.193A5.193,5.193,0,0,1,3,18.58V8.193A5.193,5.193,0,0,1,8.193,3Z" fill="none" stroke="#fff" stroke-linecap="round" stroke-linejoin="round" stroke-width="1.5"/>
      <path id="Path_24616" data-name="Path 24616" d="M20.329,15.48a4.155,4.155,0,1,1-3.5-3.5,4.155,4.155,0,0,1,3.5,3.5Z" transform="translate(-2.788 -2.748)" fill="none" stroke="#fff" stroke-linecap="round" stroke-linejoin="round" stroke-width="1.5"/>
      <path id="Path_24617" data-name="Path 24617" d="M26.25,9.75h0" transform="translate(-7.151 -2.076)" fill="none" stroke="#fff" stroke-linecap="round" stroke-linejoin="round" stroke-width="2.5"/>
    </g>
  </g>
</svg>
