<svg xmlns="http://www.w3.org/2000/svg" width="38" height="38" viewBox="0 0 38 38">
  <g id="Group_4895" data-name="Group 4895" transform="translate(-553 -10674)">
    <circle id="Ellipse_548" data-name="Ellipse 548" cx="19" cy="19" r="19" transform="translate(553 10674)" fill="#414141"/>
    <path id="Path_24946" data-name="Path 24946" d="M25.68,5c-1.069.178-2.106.012-3.146.089-5.181.388-4.753,4-4.661,6.456-3.631.552-8.058-.56-9.637-.2a6.323,6.323,0,0,0,2.643,2.265,6.992,6.992,0,0,1-1.822.65,11.37,11.37,0,0,0,2.737,1.7,15.637,15.637,0,0,1-1.5.558,7.544,7.544,0,0,0,4.832,1.858c-1.322,3.758-3.849,3.683-5.383,4.06,2.674,1.141,6.826,1.805,8.869,1.008a9.449,9.449,0,0,0,5.976-6.366c.7-2.016.34-3.662-.179-5.77a8.151,8.151,0,0,1-.372-3.25A4.37,4.37,0,0,1,25.68,5Z" transform="translate(554.765 10679)" fill="#fff"/>
  </g>
</svg>
