<svg xmlns="http://www.w3.org/2000/svg" width="38" height="38" viewBox="0 0 38 38">
  <g id="Group_4896" data-name="Group 4896" transform="translate(-553 -10621)">
    <circle id="Ellipse_547" data-name="Ellipse 547" cx="19" cy="19" r="19" transform="translate(553 10621)" fill="#414141"/>
    <g id="Icon_feather-youtube" data-name="Icon feather-youtube" transform="translate(559.728 10626.43)">
      <path id="Path_24618" data-name="Path 24618" d="M22.595,8.37a2.723,2.723,0,0,0-1.9-1.959C19.011,6,12.273,6,12.273,6S5.535,6,3.85,6.451a2.723,2.723,0,0,0-1.9,1.959A28.4,28.4,0,0,0,1.5,13.59a28.4,28.4,0,0,0,.451,5.22,2.723,2.723,0,0,0,1.9,1.88c1.684.451,8.422.451,8.422.451s6.738,0,8.422-.451a2.723,2.723,0,0,0,1.9-1.959,28.4,28.4,0,0,0,.451-5.142,28.4,28.4,0,0,0-.451-5.22Z" transform="translate(0)" fill="none" stroke="#fff" stroke-linecap="round" stroke-linejoin="round" stroke-width="1"/>
      <path id="Path_24619" data-name="Path 24619" d="M14.625,19.125l5.631-3.2-5.631-3.2Z" transform="translate(-4.556 -2.333)" fill="#fff" stroke="#fff" stroke-linecap="round" stroke-linejoin="round" stroke-width="0.5"/>
    </g>
  </g>
</svg>
